<?xml version="1.0" encoding="iso-8859-1"?>
<!-- Generator: Adobe Illustrator 19.0.0, SVG Export Plug-In . SVG Version: 6.00 Build 0)  -->
<svg version="1.1" id="Layer_1" xmlns="http://www.w3.org/2000/svg" xmlns:xlink="http://www.w3.org/1999/xlink" x="0px" y="0px"
	 viewBox="0 0 512 512" style="enable-background:new 0 0 512 512;" xml:space="preserve">
<g>
	<path style="fill:#333333;" d="M294.396,511.874c0,0-38.768-75.632,35.784-127.999s95.456-81.432,95.456-81.432
		s41.744-11.632,23.856,23.272c-12.002,22.281-28.2,42.031-47.704,58.16c0,0,56.655-11.632,71.567-58.176
		c14.912-46.544,0-72.72,35.784-81.447c0,0,17.888,87.263-35.784,139.624s-116.296,72.72-119.28,127.999L294.396,511.874
		L294.396,511.874z"/>
	<path style="fill:#333333;" d="M217.596,511.874c0,0,38.768-75.632-35.784-127.999s-95.456-81.432-95.456-81.432
		s-41.751-11.64-23.856,23.272c12.002,22.281,28.2,42.031,47.704,58.16c0,0-56.655-11.624-71.559-58.16s0-72.72-35.784-81.447
		c0,0-17.888,87.263,35.784,139.624s116.296,72.72,119.28,127.999L217.596,511.874z"/>
</g>
<path style="fill:#E21B1B;" d="M88.085,208.797v-24.744c-14.506-0.161-28.732-4.016-41.335-11.2l6.888-24
	c12.065,7.136,25.784,10.997,39.8,11.2c16.08,0,27.048-7.904,27.048-20.16c0-11.48-8.928-18.872-27.808-25.768
	c-26.792-9.696-44.143-21.936-44.143-45.664c0-21.944,15.303-38.784,41.08-43.376V0.109h20.912v23.768
	c12.216,0.135,24.244,3.011,35.199,8.416l-6.888,23.48c-10.699-5.627-22.591-8.608-34.679-8.696c-17.864,0-24.24,9.16-24.24,17.832
	c0,10.464,9.176,16.328,30.864,25.007c28.576,10.712,41.328,24.496,41.328,47.2c0,21.688-15.048,40.8-43.112,45.416v26.272
	L88.085,208.797z"/>
<path style="fill:#999999;" d="M244.269,208.797v-24.744c-14.506-0.161-28.732-4.016-41.335-11.2l6.888-24
	c12.065,7.136,25.784,10.997,39.8,11.2c16.08,0,27.048-7.904,27.048-20.16c0-11.48-8.928-18.872-27.808-25.768
	c-26.792-9.696-44.143-21.936-44.143-45.664c0-21.944,15.303-38.784,41.08-43.376V0.109h20.919v23.768
	c12.216,0.135,24.245,3.011,35.199,8.416l-6.88,23.432c-10.709-5.612-22.606-8.578-34.696-8.648
	c-17.856,0-24.232,9.184-24.232,17.856c0,10.464,9.176,16.328,30.864,25.007c28.576,10.712,41.328,24.496,41.328,47.2
	c0,21.688-15.048,40.8-43.112,45.416v26.272L244.269,208.797z"/>
<path style="fill:#CCCCCC;" d="M400.452,208.797v-24.744c-14.506-0.161-28.732-4.016-41.335-11.2l6.888-24
	c12.065,7.136,25.784,10.997,39.8,11.2c16.08,0,27.048-7.904,27.048-20.16c0-11.48-8.928-18.872-27.815-25.768
	c-26.784-9.696-44.136-21.936-44.136-45.664c0-21.944,15.303-38.784,41.08-43.376V0.109h20.912v23.768
	c12.216,0.135,24.245,3.011,35.199,8.416l-6.896,23.432c-10.704-5.609-22.595-8.575-34.679-8.648
	c-17.856,0-24.232,9.184-24.232,17.856c0,10.464,9.176,16.328,30.864,25.007c28.576,10.712,41.328,24.496,41.328,47.2
	c0,21.688-15.048,40.8-43.12,45.416v26.272L400.452,208.797z"/>
<g>
</g>
<g>
</g>
<g>
</g>
<g>
</g>
<g>
</g>
<g>
</g>
<g>
</g>
<g>
</g>
<g>
</g>
<g>
</g>
<g>
</g>
<g>
</g>
<g>
</g>
<g>
</g>
<g>
</g>
</svg>
