<svg width="435" height="429" fill="none" xmlns="http://www.w3.org/2000/svg"><g opacity=".6" fill="#4947AD"><path d="M35.33 428.994a35.912 35.912 0 0 0 13.797-2.48 35.734 35.734 0 0 0 11.773-7.566l329.815-316.806a11.989 11.989 0 0 1 3.931-2.518 12.057 12.057 0 0 1 9.174.15 11.997 11.997 0 0 1 3.846 2.646 11.907 11.907 0 0 1 2.534 3.907 11.837 11.837 0 0 1-.152 9.115 11.913 11.913 0 0 1-2.662 3.821L299.434 222.664a41.557 41.557 0 0 0-12.742 29.249 41.537 41.537 0 0 0 11.782 29.642l36.668 37.679 17.203-16.558-36.723-37.679a17.825 17.825 0 0 1-5.043-12.708 17.826 17.826 0 0 1 5.456-12.538l108.029-103.402a35.586 35.586 0 0 0 10.931-25.071 35.576 35.576 0 0 0-10.112-25.408 36.038 36.038 0 0 0-25.233-10.862 36.051 36.051 0 0 0-25.571 10.048L44.299 401.848a11.963 11.963 0 0 1-8.521 3.346 11.967 11.967 0 0 1-4.565-.974 11.896 11.896 0 0 1-3.837-2.644 11.888 11.888 0 0 1-3.363-8.474 11.894 11.894 0 0 1 3.636-8.361l220.546-215.882c.276-.19.536-.402.777-.633l29.492-28.523a35.592 35.592 0 0 0 10.362-24.913 35.584 35.584 0 0 0-10.121-25.01 36.04 36.04 0 0 0-24.835-10.851 36.065 36.065 0 0 0-25.391 9.494L107.286 205.175a11.91 11.91 0 0 1-3.923 2.52 11.983 11.983 0 0 1-4.598.826 11.916 11.916 0 0 1-4.567-.97 11.844 11.844 0 0 1-3.835-2.648 11.881 11.881 0 0 1-3.362-8.47 11.89 11.89 0 0 1 3.635-8.359l85.68-82.46a25.895 25.895 0 0 0 1.729-1.816l26.481-25.456a35.645 35.645 0 0 0 10.913-25.075 35.633 35.633 0 0 0-10.094-25.411 35.807 35.807 0 0 0-11.514-7.921 35.993 35.993 0 0 0-13.692-2.925 36 36 0 0 0-13.797 2.478 35.81 35.81 0 0 0-11.78 7.554L53.184 124.53a11.91 11.91 0 0 1-3.923 2.52 11.981 11.981 0 0 1-4.598.826 11.967 11.967 0 0 1-4.565-.974 11.897 11.897 0 0 1-3.837-2.644 11.875 11.875 0 0 1-3.361-8.472 11.883 11.883 0 0 1 3.641-8.357l28.742-27.654a41.574 41.574 0 0 0 12.74-29.255 41.557 41.557 0 0 0-11.78-29.65L43.416 0l-17.21 16.558 22.818 20.87a17.831 17.831 0 0 1 5.036 12.71 17.839 17.839 0 0 1-5.456 12.537L19.863 90.33a35.644 35.644 0 0 0-10.927 25.079A35.63 35.63 0 0 0 19.03 140.83a35.717 35.717 0 0 0 11.51 7.935 35.886 35.886 0 0 0 13.696 2.924c4.72.09 9.41-.751 13.8-2.474a35.748 35.748 0 0 0 11.777-7.564l101.392-97.523a12.047 12.047 0 0 1 8.528-3.34c3.176.05 6.202 1.349 8.416 3.611a11.885 11.885 0 0 1 3.362 8.47 11.894 11.894 0 0 1-3.635 8.36l-29.603 28.474a29.328 29.328 0 0 0-1.618 1.684L73.979 170.98a35.643 35.643 0 0 0-10.91 25.072 35.63 35.63 0 0 0 10.091 25.408 35.717 35.717 0 0 0 11.51 7.935 35.906 35.906 0 0 0 13.696 2.925 35.87 35.87 0 0 0 13.798-2.472 35.691 35.691 0 0 0 11.772-7.567L245.15 105.516a12.022 12.022 0 0 1 8.527-3.349 12.018 12.018 0 0 1 8.413 3.624 11.861 11.861 0 0 1 3.37 8.473 11.862 11.862 0 0 1-3.646 8.359l-19.22 18.582a6.7 6.7 0 0 0-1.218.919L10.915 367.627a35.65 35.65 0 0 0-10.91 25.075 35.636 35.636 0 0 0 10.09 25.411 35.717 35.717 0 0 0 11.51 7.935 35.905 35.905 0 0 0 13.697 2.925l.028.021Z"/><path d="M307.042 54.332c0 .595-.042 1.19-.042 1.772a33 33 0 1 0 .042-1.772Zm33.876-13.004a14.754 14.754 0 0 1 14.013 14.713v.792a14.775 14.775 0 0 1-9.808 13.15 14.768 14.768 0 0 1-19.555-11.775 14.767 14.767 0 0 1 15.35-16.894v.014ZM312.955 326.727a33.006 33.006 0 0 0-43.97-32.835 32.992 32.992 0 0 0-21.936 29.383c0 .592-.049 1.178-.049 1.764a33.018 33.018 0 0 0 31.241 32.918 33.044 33.044 0 0 0 34.686-31.23h.028Zm-33.731 12.954a14.7 14.7 0 0 1-9.338-25.335 14.698 14.698 0 0 1 15.909-2.85 14.694 14.694 0 0 1 8.907 13.488v.788a14.715 14.715 0 0 1-15.457 13.909h-.021Z"/></g></svg>