<svg width="177" height="283" fill="none" xmlns="http://www.w3.org/2000/svg"><path d="M134.693 178.16a31.212 31.212 0 0 1-44.09-.84 31.23 31.23 0 0 1 .7-44.1 31.221 31.221 0 0 1 44.09.85 31.21 31.21 0 0 1-.7 44.09Zm-30.41-31.49a12.55 12.55 0 0 0 8.505 21.542c3.32.063 6.53-1.192 8.925-3.492a12.541 12.541 0 0 0 .28-17.71 12.54 12.54 0 0 0-17.71-.34ZM.903 260.55l21.45.37-.37 21.46 21.45.37.38-21.46 21.45.38.38-21.45-21.46-.38.38-21.45-21.46-.37-.37 21.45-21.45-.37-.38 21.45ZM111.803 42.99l21.45.37-.38 21.46 21.46.38.37-21.46 21.46.38.37-21.46-21.45-.38.37-21.45-21.45-.37-.38 21.45-21.45-.37-.37 21.45Z" fill="#F6F5FB"/></svg>