<svg width="197" height="245" fill="none" xmlns="http://www.w3.org/2000/svg"><path d="M187.493 235.32a31.232 31.232 0 0 1-44.1-.85 31.22 31.22 0 0 1 .7-44.09 31.222 31.222 0 0 1 44.1.84 31.25 31.25 0 0 1-.7 44.1Zm-30.41-31.5a12.53 12.53 0 0 0-3.809 8.797 12.516 12.516 0 0 0 3.529 8.913 12.528 12.528 0 0 0 17.7.34 12.541 12.541 0 0 0 .28-17.71 12.53 12.53 0 0 0-17.7-.34ZM53.473 53.8a31.21 31.21 0 0 1-44.09-.85 31.22 31.22 0 0 1 .69-44.09 31.24 31.24 0 0 1 44.1.84 31.22 31.22 0 0 1-.7 44.1Zm-30.41-31.5a12.54 12.54 0 0 0-.28 17.71 12.52 12.52 0 0 0 17.7.34 12.52 12.52 0 0 0 .29-17.7 12.55 12.55 0 0 0-17.71-.35ZM93.593 105.03l21.45.37-.38 21.46 21.46.38.37-21.46 21.46.38.38-21.46-21.45-.37.37-21.46-21.46-.37-.37 21.45-21.46-.37-.37 21.45Z" fill="#F6F5FB"/></svg>