<svg width="119" height="56" viewBox="0 0 119 56" fill="none" xmlns="http://www.w3.org/2000/svg">
<g clip-path="url(#clip0_20_50)">
<path d="M17.4022 4.44997V30.0188C17.4022 30.7672 17.6802 31.3285 18.2362 31.7027C18.6068 31.9485 18.7922 32.237 18.7922 32.5681V33.5386C18.7922 33.8702 18.6036 34.0368 18.2297 34.0368H11.4768C11.1517 34.0368 11.0005 33.8848 11.0005 33.5823V32.5681C11.0005 32.251 11.181 31.9625 11.5419 31.7027C11.8175 31.5187 12.0408 31.267 12.19 30.972C12.3392 30.677 12.4094 30.3487 12.3937 30.0188V17.6444H7.37539V30.0188C7.37539 30.7672 7.65013 31.3285 8.19959 31.7027C8.57673 31.9485 8.7653 32.237 8.7653 32.5681V33.5386C8.7653 33.8707 8.57673 34.0368 8.19959 34.0368H1.42886C1.10374 34.0368 0.950928 33.8848 0.950928 33.5823V32.5681C0.950928 32.251 1.13896 31.9625 1.51502 31.7027C2.06448 31.3144 2.33975 30.7531 2.34084 30.0188V4.44997C2.34084 3.7156 2.06556 3.16132 1.51502 2.78712C1.1395 2.54125 0.950928 2.24685 0.950928 1.9007V0.951187C0.950928 0.619047 1.13896 0.453517 1.51502 0.454595H8.28737C8.61249 0.454595 8.7653 0.605028 8.7653 0.907512V1.9007C8.7653 2.2323 8.57673 2.52669 8.19959 2.78712C7.93196 2.97219 7.71594 3.22185 7.57178 3.51269C7.42763 3.80353 7.36005 4.12604 7.37539 4.44997V14.6212H12.3937V4.44997C12.3937 3.7156 12.1114 3.16132 11.5467 2.78712C11.1712 2.54125 10.9827 2.24685 10.9827 1.9007V0.951187C10.9827 0.619586 11.1712 0.454595 11.5451 0.454595H18.2947C18.6117 0.454595 18.7694 0.605028 18.7694 0.907512V1.9007C18.7694 2.2323 18.5922 2.52669 18.2362 2.78712C17.9663 2.97063 17.7481 3.21971 17.6021 3.51074C17.4561 3.80176 17.3874 4.12506 17.4022 4.44997Z" fill="white"/>
<path d="M26.6277 30.0188C26.6277 30.7677 26.9009 31.329 27.4519 31.7027C27.828 31.9485 28.016 32.237 28.016 32.568V33.5386C28.016 33.8707 27.828 34.0368 27.4519 34.0368H20.6845C20.3593 34.0368 20.2082 33.8847 20.2082 33.5823V32.568C20.2082 32.2445 20.3951 31.9631 20.7722 31.7027C21.3217 31.3144 21.5964 30.7531 21.5964 30.0188V4.44997C21.5964 3.71559 21.3217 3.16131 20.7722 2.78711C20.3902 2.53477 20.1968 2.24685 20.1968 1.90069V0.951181C20.1968 0.619581 20.3837 0.45459 20.7609 0.45459H27.5316C27.8567 0.45459 28.0095 0.605023 28.0095 0.907507V1.90069C28.0095 2.23229 27.821 2.52669 27.4454 2.78711C27.1776 2.97197 26.9614 3.22158 26.8172 3.51248C26.673 3.80338 26.6056 4.12599 26.6212 4.44997L26.6277 30.0188Z" fill="white"/>
<path d="M39.7789 2.95852V30.0187C39.7789 30.7671 40.0541 31.3284 40.6047 31.7026C40.9797 31.9485 41.1677 32.2369 41.1688 32.568V33.5385C41.1688 33.8707 40.9807 34.0367 40.6047 34.0367H33.8323C33.5072 34.0367 33.3544 33.8847 33.3544 33.5822V32.568C33.3544 32.2509 33.5424 31.9625 33.9185 31.7026C34.4701 31.3144 34.7454 30.7531 34.7443 30.0187V2.95852H33.7884C33.0797 2.95852 32.5551 3.22488 32.2148 3.7576C31.8745 4.29031 31.5673 5.46358 31.2931 7.27741C31.2638 7.52328 31.111 7.64621 30.8379 7.64621H29.991C29.5033 7.64621 29.2529 7.43593 29.2529 7.0186V0.734373C29.2529 0.249104 29.4838 0 29.9471 0C30.464 0.0241629 30.9788 0.0819795 31.4882 0.173079C32.3764 0.331246 33.275 0.425309 34.1769 0.454535H41.8597C42.2498 0.396302 42.7272 0.317042 43.2918 0.216753C44.1599 0.0857302 44.6379 0.0226458 44.724 0.0226458C45.1163 0.0226458 45.3119 0.202195 45.3109 0.561294V7.0186C45.3109 7.43593 45.1223 7.64621 44.7468 7.64621H43.9307C43.6056 7.64621 43.3991 7.5524 43.3341 7.36476C43.2049 6.90254 43.1001 6.43388 43.0204 5.96072C42.7581 4.72274 42.4904 3.91396 42.2173 3.53437C41.9442 3.15478 41.4592 2.96391 40.7624 2.96176L39.7789 2.95852Z" fill="#D2D3D4"/>
<path d="M52.9531 18.3141V30.0188C52.9531 30.7672 53.2284 31.3285 53.7789 31.7026C54.1539 31.9485 54.3419 32.237 54.343 32.568V33.5386C54.343 33.8707 54.155 34.0368 53.7789 34.0368H47.0066C46.6896 34.0368 46.5303 33.8847 46.5303 33.5823V32.568C46.5303 32.2445 46.7172 31.9631 47.0944 31.7026C47.6438 31.3144 47.9186 30.7531 47.9186 30.0188V4.44997C47.9186 3.71559 47.6438 3.16131 47.0944 2.78711C46.7172 2.53477 46.5319 2.24685 46.5319 1.90069V0.951181C46.5319 0.619581 46.7188 0.45459 47.096 0.45459H52.7857C55.9979 0.45459 58.4428 1.17441 60.1205 2.61404C61.7981 4.05366 62.6375 6.13385 62.6386 8.85459C62.6386 13.1886 60.6201 15.9891 56.5831 17.2562C57.7698 17.8321 58.6704 18.4834 59.2849 19.2102C59.8994 19.937 60.3735 21.0063 60.7073 22.4178L62.2923 29.2634C62.4939 30.1412 62.6928 30.7343 62.8889 31.0427C63.1392 31.4041 63.4695 31.7035 63.8545 31.9178C63.9201 31.9636 63.9725 32.0255 64.0067 32.0975C64.0409 32.1696 64.0557 32.2492 64.0496 32.3286V33.5596C64.0588 33.624 64.0528 33.6897 64.0321 33.7515C64.0115 33.8132 63.9767 33.8693 63.9305 33.9154C63.8843 33.9615 63.828 33.9963 63.7661 34.0171C63.7041 34.0379 63.6381 34.0441 63.5733 34.0352H59.2426C58.8232 34.0352 58.5561 33.8028 58.4412 33.338L55.4728 21.4602C55.1542 20.15 54.8031 19.3008 54.4194 18.9126C54.2278 18.7202 53.9992 18.568 53.7473 18.4652C53.4954 18.3624 53.2254 18.311 52.9531 18.3141ZM52.9531 3.06695V15.7438C54.517 15.7438 55.6674 15.2542 56.4043 14.275C57.1413 13.2959 57.5103 11.5538 57.5114 9.04869C57.5114 6.60186 57.1391 4.99293 56.3946 4.22189C55.65 3.45085 54.5029 3.06587 52.9531 3.06695Z" fill="#D2D3D4"/>
<path d="M80.431 26.245C80.431 28.8202 79.7726 30.8346 78.4559 32.2882C77.1391 33.7419 75.4176 34.4681 73.2913 34.4671C71.1628 34.4671 69.4191 33.7478 68.06 32.3092C66.701 30.8707 66.021 28.9835 66.0199 26.6478V4.44673C66.0199 3.71236 65.7451 3.15861 65.1957 2.7855C64.8185 2.52507 64.6316 2.23067 64.6316 1.89907V0.949564C64.6316 0.626052 64.8185 0.45459 65.1957 0.45459H71.9664C72.2915 0.45459 72.4443 0.605023 72.4443 0.907507V1.89907C72.4443 2.23013 72.2563 2.52507 71.8802 2.78388C71.3297 3.15915 71.0544 3.71344 71.0544 4.44673V26.8904C71.0544 29.8829 72.0531 31.3791 74.0505 31.3791C76.2353 31.3791 77.3277 29.6241 77.3277 26.114V4.43864C77.3277 3.70427 77.0524 3.14999 76.5019 2.77579C76.1258 2.51698 75.9378 2.22205 75.9378 1.89098V0.949564C75.9378 0.619581 76.1258 0.45459 76.5019 0.45459H81.343C81.6681 0.45459 81.8209 0.605023 81.8209 0.907507V1.89907C81.8209 2.22258 81.6324 2.52507 81.2552 2.7855C80.7057 3.15969 80.431 3.71344 80.431 4.44673V26.245Z" fill="#D2D3D4"/>
<path d="M85.4233 34.0367H84.3374C83.9765 34.0367 83.7944 33.8409 83.7944 33.4527V25.3115C83.7944 24.7648 83.9895 24.4898 84.3813 24.4898H85.3144C85.4114 24.4779 85.5098 24.4953 85.5968 24.5397C85.6837 24.5841 85.7553 24.6535 85.8021 24.7389C85.8812 24.9039 85.9934 25.476 86.1386 26.4552C86.7325 30.2295 88.0872 32.1166 90.2027 32.1166C91.3027 32.1166 92.167 31.6416 92.7955 30.6915C93.4241 29.7415 93.7389 28.5898 93.74 27.2364C93.7482 25.8771 93.4003 24.5391 92.7305 23.3543C92.0586 22.1594 90.7581 20.5467 88.829 18.5162C87.3378 16.9611 86.2779 15.7555 85.6493 14.8993C85.0022 14.008 84.4901 13.027 84.1293 11.9877C83.7353 10.8427 83.5407 9.6392 83.5538 8.42904C83.5538 6.03936 84.158 4.07402 85.3664 2.53302C86.5748 0.992027 88.0471 0.222067 89.7832 0.223146C90.6781 0.248243 91.555 0.47911 92.3452 0.897669C92.7506 1.1004 93.0253 1.20177 93.1694 1.20177C93.3429 1.19201 93.5094 1.13058 93.6474 1.02546C93.8452 0.913492 94.0701 0.857552 94.2976 0.8637H95.1007C95.5201 0.8637 95.7298 1.05835 95.7298 1.44764V8.59565C95.7298 8.95582 95.571 9.13591 95.2535 9.13591H94.2553C93.9936 9.13591 93.8245 9.06636 93.7449 8.93048C93.6652 8.79461 93.5238 8.27214 93.3206 7.36468C92.6411 4.2374 91.5346 2.67375 90.0011 2.67375C89.609 2.66624 89.2214 2.75734 88.8741 2.93859C88.5269 3.11984 88.2312 3.38538 88.0146 3.71061C87.5135 4.40866 87.2513 5.24854 87.2668 6.10622C87.2873 7.24006 87.5888 8.35132 88.1446 9.34134C88.7309 10.4434 89.8992 11.8863 91.6495 13.6699C93.8928 15.9604 95.4448 17.9727 96.3053 19.7067C97.1718 21.4633 97.6144 23.3969 97.5976 25.3536C97.5976 28.0894 96.8775 30.3141 95.4372 32.0277C93.9969 33.7412 92.2862 34.598 90.3051 34.598C89.4229 34.598 88.3879 34.3656 87.2001 33.9008C86.9488 33.7756 86.6777 33.6946 86.3987 33.6614C86.1937 33.683 85.9984 33.759 85.833 33.8814C85.7116 33.9663 85.5708 34.0197 85.4233 34.0367Z" fill="#D2D3D4"/>
<path d="M109.167 2.95852V30.0187C109.167 30.7671 109.442 31.3284 109.991 31.7026C110.368 31.9485 110.555 32.2364 110.555 32.568V33.5385C110.555 33.8701 110.368 34.0367 109.991 34.0367H103.22C102.895 34.0367 102.743 33.8847 102.743 33.5822V32.568C102.743 32.2509 102.931 31.9625 103.307 31.7026C103.856 31.3144 104.131 30.7531 104.131 30.0187V2.95852H103.177C102.468 2.95852 101.943 3.22488 101.603 3.7576C101.263 4.29031 100.955 5.46358 100.681 7.27741C100.652 7.52328 100.499 7.64621 100.224 7.64621H99.3775C98.8898 7.64621 98.6411 7.43593 98.6411 7.0186V0.734373C98.6411 0.249104 98.872 0 99.3353 0C99.8522 0.0241629 100.367 0.0819795 100.876 0.173079C101.765 0.331385 102.664 0.425449 103.567 0.454535H111.251C111.641 0.396302 112.119 0.317042 112.683 0.216753C113.551 0.0857302 114.029 0.0226458 114.115 0.0226458C114.506 0.0226458 114.701 0.202195 114.701 0.561294V7.0186C114.701 7.43593 114.514 7.64621 114.138 7.64621H113.312C112.987 7.64621 112.781 7.5524 112.716 7.36476C112.587 6.90244 112.481 6.4338 112.4 5.96072C112.14 4.72274 111.873 3.91396 111.597 3.53437C111.322 3.15478 110.838 2.96391 110.144 2.96176L109.167 2.95852Z" fill="#D2D3D4"/>
<path d="M114.737 37.2573H1.15259V38.464H114.737V37.2573Z" fill="#D2D3D4"/>
<path d="M7.59502 46.5712C7.59502 44.5282 7.35443 43.6208 6.20511 43.6208C4.83471 43.6208 4.71116 44.8776 4.71116 48.5511C4.71116 52.7163 4.85422 53.7968 6.28639 53.7968C7.55438 53.7968 7.69743 52.4025 7.71857 50.222H11.03V50.7073C11.03 53.7337 10.1505 55.9919 5.89787 55.9919C1.50868 55.9919 1.1543 52.8295 1.1543 48.6061C1.1543 45.0102 1.3575 41.416 6.22462 41.416C9.25153 41.416 10.908 42.6729 10.908 45.9727V46.5631L7.59502 46.5712Z" fill="white"/>
<path d="M15.8076 51.4435V51.9287C15.8076 52.9898 16.1148 53.7954 17.3015 53.7954C18.4882 53.7954 18.8556 52.9316 18.8556 52.1261C18.8556 49.1012 12.5775 50.79 12.5775 45.5442C12.5775 43.3055 13.8243 41.4194 17.3617 41.4194C20.7982 41.4194 22.0256 43.0888 22.0256 45.2498V45.5847H18.7191C18.7191 44.9166 18.6362 44.4249 18.433 44.1111C18.2298 43.7972 17.9014 43.6258 17.3893 43.6258C16.531 43.6258 16.0189 44.1111 16.0189 45.1382C16.0189 48.066 22.2971 46.594 22.2971 51.5437C22.2971 54.7255 20.4569 56.0017 17.308 56.0017C14.8127 56.0017 12.5027 55.2755 12.5027 52.3477V51.4451L15.8076 51.4435Z" fill="white"/>
<path d="M24.4639 41.6992H32.909V44.3714H27.8988V47.1795H32.6034V49.8517H27.8988V55.7251H24.4639V41.6992Z" fill="white"/>
<path d="M46.7529 46.5714C46.7529 44.5284 46.5074 43.6242 45.3614 43.6242C43.9926 43.6242 43.869 44.881 43.869 48.5545C43.869 52.7197 44.0121 53.8003 45.4443 53.8003C46.7123 53.8003 46.8553 52.4059 46.8748 50.2254H50.1878V50.7107C50.1878 53.7372 49.3084 55.9953 45.0557 55.9953C40.6584 55.9953 40.3105 52.833 40.3105 48.6095C40.3105 45.0137 40.5154 41.4194 45.3825 41.4194C48.4094 41.4194 50.0659 42.6763 50.0659 45.9761V46.5665L46.7529 46.5714Z" fill="white"/>
<path d="M54.9314 50.9321V51.5792C54.9314 53.2291 55.1769 54.0346 56.1376 54.0346C56.9976 54.0346 57.2626 53.4248 57.3439 52.0935H60.4114C60.3513 54.7253 58.8573 56.0016 56.1181 56.0016C51.9468 56.0016 51.6184 53.1935 51.6184 50.0295C51.6184 47.0435 52.519 44.8242 56.1181 44.8242C60.2277 44.8242 60.5073 47.3185 60.5073 50.9337L54.9314 50.9321ZM57.3244 49.0849C57.3244 47.5919 57.1195 46.7863 56.1994 46.7863C55.1151 46.7863 54.9314 47.6517 54.9314 49.0849H57.3244Z" fill="white"/>
<path d="M62.3328 45.0978H65.5239V46.5908H65.5645C65.9937 45.6478 66.8325 44.8228 68.2224 44.8228C68.4004 44.8178 68.5786 44.8308 68.754 44.8616V47.8477C68.4504 47.7929 68.1424 47.7669 67.8339 47.77C66.5057 47.77 65.6458 48.3006 65.6458 49.6949V55.7252H62.3328V45.0978Z" fill="white"/>
<path d="M70.8399 47.2975H69.4695V45.0976H70.8399V41.9741H74.1529V45.0976H75.6859V47.2975H74.1529V52.6614C74.1529 53.4071 74.439 53.6432 75.2161 53.6432C75.3733 53.64 75.5302 53.627 75.6859 53.6044V55.725C75.0555 55.8038 74.4208 55.8433 73.7855 55.8431C71.495 55.8431 70.8399 55.45 70.8399 52.9752V47.2975Z" fill="white"/>
<path d="M77.4446 41.5425H80.7576V43.9785H77.4446V41.5425ZM77.4446 45.1011H80.7576V55.7285H77.4446V45.1011Z" fill="white"/>
<path d="M83.6188 47.2977H82.25V45.0978H83.6188V44.213C83.6188 42.2493 84.295 41.4243 86.9936 41.4243C87.6064 41.4243 88.0372 41.4437 88.4664 41.4825V43.621H87.9949C87.096 43.621 86.9318 43.8183 86.9318 44.4297V45.0978H88.4729V47.2977H86.9383V55.7252H83.6188V47.2977Z" fill="white"/>
<path d="M89.8369 41.5425H93.1483V43.9785H89.8369V41.5425ZM89.8369 45.1011H93.1483V55.7285H89.8369V45.1011Z" fill="white"/>
<path d="M98.5258 50.9321V51.5792C98.5258 53.2291 98.7712 54.0346 99.732 54.0346C100.592 54.0346 100.857 53.4248 100.94 52.0935H104.007C103.946 54.7253 102.453 56.0016 99.7125 56.0016C95.5411 56.0016 95.2144 53.1935 95.2144 50.0295C95.2144 47.0435 96.1133 44.8242 99.7125 44.8242C103.822 44.8242 104.11 47.3185 104.11 50.9337L98.5258 50.9321ZM100.919 49.0849C100.919 47.5919 100.714 46.7863 99.7937 46.7863C98.7111 46.7863 98.5258 47.6517 98.5258 49.0849H100.919Z" fill="white"/>
<path d="M111.511 54.4294H111.471C111.225 55.1557 110.55 56.0001 109.078 56.0001C106.849 56.0001 105.664 54.4682 105.664 50.5004C105.664 47.1989 106.152 44.8227 108.874 44.8227C109.795 44.8227 110.798 45.1171 111.349 46.2559H111.394V41.6992H114.707V55.7251H111.511V54.4294ZM110.243 47.1407C109.037 47.1407 108.975 48.417 108.975 50.3435C108.975 52.0516 109.016 53.6821 110.263 53.6821C111.238 53.6821 111.449 52.5498 111.449 50.481C111.449 48.5949 111.368 47.1407 110.243 47.1407Z" fill="white"/>
<path d="M118.903 43.5707C118.911 43.8287 118.841 44.0832 118.703 44.3015C118.565 44.5198 118.364 44.692 118.126 44.7958C117.889 44.8997 117.625 44.9305 117.37 44.8843C117.115 44.8381 116.88 44.717 116.694 44.5366C116.509 44.3562 116.381 44.1247 116.329 43.8719C116.277 43.6191 116.302 43.3565 116.401 43.1178C116.5 42.8792 116.668 42.6755 116.884 42.5328C117.1 42.3901 117.354 42.315 117.614 42.3171C117.781 42.3139 117.948 42.3439 118.104 42.4054C118.26 42.4669 118.402 42.5587 118.522 42.6753C118.642 42.792 118.738 42.9312 118.803 43.085C118.868 43.2387 118.902 43.4038 118.903 43.5707ZM116.638 43.5707C116.634 43.7008 116.656 43.8303 116.704 43.9516C116.751 44.0729 116.822 44.1836 116.913 44.277C117.004 44.3704 117.113 44.4446 117.233 44.4953C117.354 44.546 117.483 44.5721 117.614 44.572C117.871 44.5575 118.112 44.4456 118.289 44.2595C118.466 44.0733 118.564 43.8269 118.564 43.5707C118.564 43.3146 118.466 43.0682 118.289 42.882C118.112 42.6958 117.871 42.584 117.614 42.5695C117.483 42.5694 117.354 42.5955 117.233 42.6462C117.113 42.6969 117.004 42.7711 116.913 42.8645C116.822 42.9579 116.751 43.0686 116.704 43.1899C116.656 43.3112 116.634 43.4407 116.638 43.5707ZM117.414 44.2275H117.121V42.9739C117.282 42.9462 117.445 42.9338 117.609 42.9367C117.76 42.9243 117.912 42.9557 118.046 43.0272C118.086 43.0608 118.118 43.103 118.14 43.1507C118.161 43.1983 118.171 43.2501 118.17 43.3022C118.164 43.3725 118.135 43.439 118.088 43.4915C118.041 43.5441 117.978 43.5799 117.908 43.5934V43.6079C117.971 43.6333 118.025 43.6752 118.066 43.729C118.107 43.7829 118.132 43.8467 118.139 43.9137C118.151 44.0229 118.182 44.1292 118.231 44.2275H117.913C117.864 44.1313 117.83 44.0282 117.812 43.9217C117.789 43.7843 117.713 43.7228 117.552 43.7228H117.409L117.414 44.2275ZM117.414 43.5174H117.554C117.716 43.5174 117.845 43.464 117.845 43.333C117.845 43.2019 117.76 43.1421 117.576 43.1421C117.522 43.1408 117.467 43.1463 117.414 43.1583V43.5174Z" fill="white"/>
</g>
<defs>
<clipPath id="clip0_20_50">
<rect width="117.952" height="56" fill="white" transform="translate(0.950928)"/>
</clipPath>
</defs>
</svg>
