<svg width="624" height="617" fill="rgb(69,67,172)" xmlns="http://www.w3.org/2000/svg"><path d="M50.68 616.721a51.466 51.466 0 0 0 19.792-3.56 51.255 51.255 0 0 0 16.888-10.865l473.114-454.901a17.217 17.217 0 0 1 5.639-3.615 17.289 17.289 0 0 1 13.16.216 17.216 17.216 0 0 1 5.517 3.799 17.039 17.039 0 0 1 4.835 12.175 17.013 17.013 0 0 1-1.418 6.523 17.102 17.102 0 0 1-3.819 5.487L429.532 320.453c-11.445 11.038-18.019 26.143-18.277 41.998-.258 15.854 5.821 31.162 16.901 42.563l52.6 54.103 24.678-23.775-52.68-54.103a25.606 25.606 0 0 1-7.234-18.247 25.62 25.62 0 0 1 7.826-18.005l154.966-148.473a51.13 51.13 0 0 0 15.681-36 51.107 51.107 0 0 0-14.506-36.484c-9.508-9.767-22.528-15.377-36.195-15.596-13.667-.219-26.862 4.97-36.683 14.427L63.546 577.742a17.061 17.061 0 0 1-5.628 3.619 17.151 17.151 0 0 1-6.595 1.186 17.153 17.153 0 0 1-6.549-1.398 17.088 17.088 0 0 1-5.504-3.796 17.082 17.082 0 0 1-4.823-12.168 17.088 17.088 0 0 1 5.215-12.007l316.37-309.983a9.084 9.084 0 0 0 1.115-.909l42.304-40.957a51.125 51.125 0 0 0 14.865-35.773 51.122 51.122 0 0 0-14.519-35.912 51.675 51.675 0 0 0-35.625-15.581 51.705 51.705 0 0 0-36.423 13.633L153.9 295.34a17.09 17.09 0 0 1-5.628 3.619 17.19 17.19 0 0 1-6.595 1.186 17.084 17.084 0 0 1-6.551-1.393 16.977 16.977 0 0 1-5.502-3.802 17.077 17.077 0 0 1-4.822-12.163 17.077 17.077 0 0 1 5.214-12.002L252.922 152.38a36.788 36.788 0 0 0 2.481-2.607l37.986-36.552a51.203 51.203 0 0 0 15.654-36.005 51.186 51.186 0 0 0-14.479-36.488 51.35 51.35 0 0 0-16.517-11.374 51.584 51.584 0 0 0-19.641-4.2 51.591 51.591 0 0 0-19.791 3.558 51.376 51.376 0 0 0-16.899 10.847L76.292 179.542a17.093 17.093 0 0 1-5.629 3.619 17.17 17.17 0 0 1-6.595 1.186 17.154 17.154 0 0 1-6.548-1.399 17.073 17.073 0 0 1-5.504-3.796 17.062 17.062 0 0 1-4.822-12.165 17.07 17.07 0 0 1 5.224-12l41.23-39.708c11.444-11.043 18.017-26.15 18.274-42.007a59.701 59.701 0 0 0-16.899-42.574L62.281.73 37.593 24.505l32.733 29.968a25.618 25.618 0 0 1 7.224 18.25 25.628 25.628 0 0 1-7.827 18.002l-41.23 39.708a51.207 51.207 0 0 0-15.675 36.011 51.186 51.186 0 0 0 14.48 36.503 51.238 51.238 0 0 0 16.51 11.394 51.469 51.469 0 0 0 19.648 4.2 51.484 51.484 0 0 0 19.796-3.554 51.26 51.26 0 0 0 16.894-10.861L245.59 64.093a17.277 17.277 0 0 1 12.234-4.797 17.27 17.27 0 0 1 12.072 5.187 17.073 17.073 0 0 1 4.823 12.163 17.08 17.08 0 0 1-5.215 12.001l-42.465 40.887a42.777 42.777 0 0 0-2.32 2.418L106.122 246.241a51.204 51.204 0 0 0-15.65 36.001 51.184 51.184 0 0 0 14.475 36.483 51.233 51.233 0 0 0 16.51 11.394 51.471 51.471 0 0 0 19.647 4.2 51.396 51.396 0 0 0 19.794-3.55 51.16 51.16 0 0 0 16.886-10.865L351.663 152.24a17.239 17.239 0 0 1 12.233-4.808 17.232 17.232 0 0 1 12.068 5.203 17.039 17.039 0 0 1 4.834 12.166 17.05 17.05 0 0 1-5.231 12.004l-27.57 26.681a9.648 9.648 0 0 0-1.748 1.319L15.657 528.604a51.214 51.214 0 0 0-15.65 36.005 51.199 51.199 0 0 0 14.475 36.489 51.236 51.236 0 0 0 16.51 11.393 51.45 51.45 0 0 0 19.648 4.2l.04.03Z" fill="#4543AC"/><path d="M403.559 78.638c0 .85-.06 1.698-.06 2.527a46.92 46.92 0 0 0 13.737 33.003 47.433 47.433 0 0 0 33.083 13.897 47.443 47.443 0 0 0 33.363-13.218 46.932 46.932 0 0 0 14.416-32.715 46.908 46.908 0 0 0-12.84-33.357 47.418 47.418 0 0 0-32.696-14.776 47.458 47.458 0 0 0-33.709 12.321 46.947 46.947 0 0 0-15.294 32.318Zm48.562-18.54a21.204 21.204 0 0 1 14.253 6.502 20.983 20.983 0 0 1 5.835 14.475v1.13a20.993 20.993 0 0 1-4.172 11.493 21.164 21.164 0 0 1-9.887 7.255 21.283 21.283 0 0 1-12.273.572 21.192 21.192 0 0 1-10.526-6.304 21.006 21.006 0 0 1-5.234-11.056 20.95 20.95 0 0 1 1.821-12.085 21.091 21.091 0 0 1 8.262-9.044 21.262 21.262 0 0 1 11.921-2.958v.02ZM411.223 469.836a47.12 47.12 0 0 0-12.144-34.094c-8.432-9.313-20.239-14.915-32.823-15.574a47.748 47.748 0 0 0-18.349 2.644 47.55 47.55 0 0 0-15.935 9.428 47.274 47.274 0 0 0-11.093 14.777 47.055 47.055 0 0 0-4.56 17.874c0 .849-.071 1.688-.071 2.527a47.144 47.144 0 0 0 13.058 32.477 47.648 47.648 0 0 0 31.929 14.664 47.737 47.737 0 0 0 34.271-12.09 47.217 47.217 0 0 0 15.676-32.633h.041Zm-48.572 18.55a21.224 21.224 0 0 1-11.435-4.078 21.06 21.06 0 0 1-7.297-9.66 20.947 20.947 0 0 1-.753-12.059 21.02 21.02 0 0 1 6.038-10.484 21.205 21.205 0 0 1 10.839-5.455 21.273 21.273 0 0 1 12.07 1.373 21.138 21.138 0 0 1 9.322 7.747 20.97 20.97 0 0 1 3.503 11.569v1.128a21.023 21.023 0 0 1-6.984 14.541 21.248 21.248 0 0 1-15.273 5.378h-.03Z" fill="#4543AC"/></svg>