<svg width="624" height="617" fill="none" xmlns="http://www.w3.org/2000/svg"><path d="M573.317.4a51.473 51.473 0 0 0-19.793 3.56 51.245 51.245 0 0 0-16.889 10.865L63.541 469.726a17.242 17.242 0 0 1-12.235 4.812 17.242 17.242 0 0 1-12.073-5.202 17.045 17.045 0 0 1-4.838-12.168 17.055 17.055 0 0 1 5.23-12.007L194.52 296.668c11.448-11.037 18.024-26.141 18.284-41.995a59.667 59.667 0 0 0-16.898-42.566l-52.733-54.113-24.679 23.775 52.683 54.143a25.607 25.607 0 0 1 7.234 18.248 25.616 25.616 0 0 1-7.827 18.004L15.689 420.607a51.129 51.129 0 0 0-15.682 36 51.11 51.11 0 0 0 14.507 36.484c9.509 9.767 22.53 15.377 36.198 15.596 13.668.219 26.864-4.97 36.684-14.427L560.49 39.379a17.233 17.233 0 0 1 12.231-4.801 17.227 17.227 0 0 1 12.062 5.205 17.034 17.034 0 0 1 4.827 12.164 17.041 17.041 0 0 1-5.234 11.996L267.945 373.927a9.084 9.084 0 0 0-1.115.909l-42.307 40.956a51.129 51.129 0 0 0-15.687 35.998 51.11 51.11 0 0 0 14.502 36.486c9.508 9.768 22.528 15.38 36.196 15.601 13.668.221 26.864-4.967 36.686-14.422L470.1 321.821a17.229 17.229 0 0 1 12.22-4.802 17.222 17.222 0 0 1 12.058 5.192 17.058 17.058 0 0 1 4.821 12.165 17.066 17.066 0 0 1-5.223 12L371.062 464.741a39.209 39.209 0 0 0-2.481 2.607L330.593 503.9a51.125 51.125 0 0 0-15.143 35.85 51.123 51.123 0 0 0 14.513 36.107c9.418 9.674 22.284 15.274 35.82 15.591a51.705 51.705 0 0 0 36.517-13.896l145.404-139.973a17.25 17.25 0 0 1 12.229-4.809c2.257.036 4.484.514 6.554 1.406a17.186 17.186 0 0 1 5.514 3.793 17.03 17.03 0 0 1 4.837 12.163 17.021 17.021 0 0 1-1.414 6.518 17.078 17.078 0 0 1-3.815 5.484l-41.182 39.708c-11.444 11.044-18.015 26.152-18.271 42.009-.256 15.857 5.824 31.168 16.905 42.572l32.735 29.968 24.699-23.775-32.745-29.968a25.624 25.624 0 0 1-7.22-18.252 25.63 25.63 0 0 1 7.833-18l41.182-39.708a51.128 51.128 0 0 0 15.359-35.911 51.115 51.115 0 0 0-14.51-36.259c-9.453-9.711-22.381-15.317-35.969-15.596a51.704 51.704 0 0 0-36.587 14.103L378.394 553.018a17.192 17.192 0 0 1-5.64 3.747 17.261 17.261 0 0 1-18.885-3.917 17.074 17.074 0 0 1-3.664-5.677 17.003 17.003 0 0 1 .336-13.222 17.084 17.084 0 0 1 3.947-5.485l42.458-40.887a42.127 42.127 0 0 0 2.321-2.418L517.912 370.88a51.131 51.131 0 0 0 15.358-35.911 51.119 51.119 0 0 0-14.509-36.259 51.681 51.681 0 0 0-35.969-15.596 51.706 51.706 0 0 0-36.588 14.103L272.285 464.881a17.238 17.238 0 0 1-12.234 4.808 17.228 17.228 0 0 1-12.069-5.203 17.044 17.044 0 0 1-4.835-12.166 17.047 17.047 0 0 1 5.232-12.003l27.582-26.682a9.96 9.96 0 0 0 1.738-1.319L608.312 88.487a51.19 51.19 0 0 0 14.529-26.018 50.998 50.998 0 0 0-2.453-29.662A51.316 51.316 0 0 0 601.779 9.5 51.74 51.74 0 0 0 573.287.4h.03Z" fill="#4543AC"/><path d="M220.415 538.473a46.938 46.938 0 0 0-13.677-35.537 47.457 47.457 0 0 0-33.098-13.909 47.471 47.471 0 0 0-33.383 13.219 46.949 46.949 0 0 0-14.427 32.728 46.924 46.924 0 0 0 12.845 33.374 47.443 47.443 0 0 0 32.712 14.784 47.48 47.48 0 0 0 33.726-12.326 46.962 46.962 0 0 0 15.302-32.333Zm-48.575 18.561a21.223 21.223 0 0 1-14.248-6.508 20.998 20.998 0 0 1-5.841-14.47v-1.129a20.991 20.991 0 0 1 4.163-11.5c2.5-3.34 5.94-5.868 9.884-7.264a21.289 21.289 0 0 1 12.277-.58 21.204 21.204 0 0 1 10.531 6.3 21.004 21.004 0 0 1 5.24 11.056 20.957 20.957 0 0 1-1.818 12.088 21.1 21.1 0 0 1-8.263 9.048 21.268 21.268 0 0 1-11.925 2.959ZM212.751 147.285a47.012 47.012 0 0 0 2.652 18.253 47.205 47.205 0 0 0 9.473 15.854 47.505 47.505 0 0 0 14.853 11.042 47.736 47.736 0 0 0 17.971 4.549 47.686 47.686 0 0 0 34.295-12.059 47.295 47.295 0 0 0 11.103-14.771 47.085 47.085 0 0 0 4.573-17.873c0-.849.07-1.688.07-2.527a47.134 47.134 0 0 0-13.546-32.9 47.653 47.653 0 0 0-32.768-14.207 47.682 47.682 0 0 0-33.456 12.522 47.162 47.162 0 0 0-15.22 32.167v-.05Zm48.575-18.55a21.23 21.23 0 0 1 11.436 4.078 21.065 21.065 0 0 1 7.297 9.66 20.947 20.947 0 0 1 .753 12.059 21.027 21.027 0 0 1-6.038 10.484 21.21 21.21 0 0 1-10.841 5.455 21.274 21.274 0 0 1-12.07-1.373 21.131 21.131 0 0 1-9.322-7.746 20.964 20.964 0 0 1-3.504-11.569v-1.129a21.024 21.024 0 0 1 6.985-14.541 21.253 21.253 0 0 1 15.274-5.378h.03Z" fill="#4543AC"/></svg>