<svg width="33" height="32" viewBox="0 0 33 32" fill="none" xmlns="http://www.w3.org/2000/svg">
<ellipse cx="16.9444" cy="16" rx="15.9935" ry="16" fill="white"/>
<path d="M9.27466 23.5853H12.7032V12.5303H9.27466V23.5853Z" fill="#4240A6"/>
<path d="M10.9739 11.0855C11.3795 11.0895 11.777 10.973 12.1161 10.7509C12.4552 10.5288 12.7206 10.2112 12.8785 9.83831C13.0364 9.46539 13.0798 9.05399 13.0031 8.65642C12.9264 8.25884 12.7331 7.89299 12.4477 7.60531C12.1623 7.31762 11.7977 7.12119 11.4003 7.04075C11.0028 6.9603 10.5904 6.99952 10.2153 7.15354C9.84029 7.30756 9.5195 7.5694 9.29377 7.90576C9.06804 8.24212 8.94753 8.63785 8.94752 9.04273C8.94619 9.58152 9.15864 10.0989 9.53838 10.4817C9.91813 10.8646 10.4343 11.0816 10.9739 11.0855Z" fill="#4240A6"/>
<path d="M18.1631 17.7832C18.1631 16.23 18.8815 15.31 20.2539 15.31C21.5124 15.31 22.1218 16.1954 22.1218 17.7832V23.5853H25.5305V16.5862C25.5305 13.6183 23.8509 12.1937 21.5025 12.1937C20.8355 12.1848 20.1775 12.3483 19.5924 12.6681C19.0073 12.9879 18.5149 13.4532 18.1631 14.019V12.5351H14.8782V23.5902H18.1631V17.7881V17.7832Z" fill="#4240A6"/>
</svg>
