<svg width="3845" height="632" viewBox="0 0 3845 632" fill="none" xmlns="http://www.w3.org/2000/svg">
<g opacity="0.07">
<path d="M834.181 136.165H1010.68C1031.53 135.041 1052.39 138.143 1072.01 145.283C1091.63 152.422 1109.61 163.452 1124.86 177.712C1146.93 202.246 1158.72 234.335 1157.76 267.325V268.539C1159.06 297.13 1150.43 325.292 1133.31 348.235C1116.2 371.178 1091.68 387.488 1063.9 394.394L1170.8 551.786H1088.16L990.816 406.829H903.78V551.786H834.181V136.165ZM1005.52 342.234C1055.41 342.234 1087.1 314.787 1087.1 272.634V271.571C1087.1 226.991 1056.78 202.578 1004.92 202.578H903.78V342.234H1005.52Z" fill="#FF384D"/>
<path d="M1206.44 437.759V238.213H1274.82V416.38C1274.82 465.054 1298.02 492.196 1338.81 492.196C1379.6 492.196 1406.14 463.688 1406.14 415.014V238.061H1475.13V551.634H1406.14V503.872C1396.9 520.559 1383.37 534.475 1366.94 544.178C1350.52 553.882 1331.81 559.02 1312.73 559.064C1245.41 559.064 1206.59 511.452 1206.59 437.759H1206.44Z" fill="#FF384D"/>
<path d="M1612.66 503.872V552.545H1544.12V119.032H1612.66V291.284C1623 273.44 1637.83 258.616 1655.68 248.293C1673.54 237.97 1693.78 232.51 1714.41 232.452C1784.61 232.452 1853.15 290.678 1853.15 395.153V396.363C1853.15 500.231 1785.22 559.064 1714.41 559.064C1694.19 559.07 1674.29 554.025 1656.53 544.386C1638.76 534.746 1623.68 520.821 1612.66 503.872V503.872ZM1783.55 396.363V395.153C1783.55 334.5 1744.43 294.771 1698.03 294.771C1651.63 294.771 1610.99 335.258 1610.99 395.153V396.363C1610.99 456.258 1651.63 496.745 1698.03 496.745C1744.43 496.745 1783.55 458.077 1783.55 396.363Z" fill="#FF384D"/>
<path d="M1901.67 121.911H1975.21V190.145H1901.67V121.911ZM1904.55 238.211H1972.93V551.784H1904.55V238.211Z" fill="#FF384D"/>
<path d="M2025.55 396.822V395.611C2025.55 306.603 2091.21 231.696 2181.13 231.696C2203.86 230.917 2226.48 235.393 2247.2 244.783C2267.93 254.172 2286.2 268.221 2300.61 285.83L2257.55 333.896C2248.56 321.937 2236.97 312.185 2223.65 305.38C2210.32 298.575 2195.63 294.895 2180.67 294.622C2130.78 294.622 2094.09 340.113 2094.09 394.397V395.611C2094.09 451.412 2130.78 495.989 2183.4 495.989C2198.38 495.59 2213.08 491.922 2226.5 485.243C2239.91 478.564 2251.69 469.035 2261.04 457.322L2302.28 500.084C2288.04 518.886 2269.53 534.029 2248.28 544.259C2227.02 554.489 2203.64 559.511 2180.06 558.915C2091.21 558.915 2025.55 485.829 2025.55 396.822V396.822Z" fill="#FF384D"/>
<path d="M2321.53 396.819V395.608C2321.01 374.309 2324.74 353.118 2332.52 333.282C2340.3 313.446 2351.95 295.365 2366.81 280.096C2381.67 264.828 2399.43 252.68 2419.05 244.369C2438.67 236.057 2459.75 231.747 2481.05 231.693C2502.25 231.646 2523.25 235.85 2542.8 244.058C2562.35 252.265 2580.06 264.309 2594.87 279.478C2609.69 294.647 2621.31 312.629 2629.06 332.368C2636.8 352.106 2640.51 373.198 2639.96 394.394V395.608C2640.41 416.908 2636.59 438.081 2628.74 457.886C2620.89 477.691 2609.17 495.727 2594.25 510.939C2579.33 526.15 2561.53 538.232 2541.88 546.47C2522.24 554.708 2501.14 558.937 2479.84 558.912C2458.73 558.918 2437.83 554.702 2418.37 546.511C2398.91 538.319 2381.29 526.32 2366.54 511.216C2351.79 496.112 2340.21 478.209 2332.48 458.563C2324.75 438.917 2321.03 417.924 2321.53 396.819ZM2571.58 396.819V395.608C2571.58 340.414 2533.67 294.619 2479.84 294.619C2426.01 294.619 2389.92 340.11 2389.92 394.394V395.608C2389.92 450.195 2427.83 495.986 2480.9 495.986C2533.97 495.986 2571.88 450.496 2571.88 396.819H2571.58Z" fill="#FF384D"/>
<path d="M2690.91 238.212H2759.9V286.278C2769.28 269.756 2782.86 256.009 2799.26 246.423C2815.66 236.837 2834.31 231.755 2853.31 231.693C2920.63 231.693 2959.45 279.152 2959.45 351.632V551.785H2890.91V373.618C2890.91 324.944 2867.71 297.802 2827.07 297.802C2786.44 297.802 2759.6 326.917 2759.6 375.591V552.544H2691.21V238.971L2690.91 238.212Z" fill="#FF384D"/>
<path d="M3022.38 136.167H3096.53L3217.08 332.682L3337.62 136.167H3411.77V551.79H3342.02V253.682L3217.08 449.59H3214.8L3090.92 254.895V551.79H3022.38V136.167Z" fill="#FF384D"/>
<path d="M3486.37 136.167H3634.06C3758.55 136.167 3844.52 225.783 3844.52 342.691V343.902C3844.52 460.961 3758.55 551.788 3634.06 551.788H3486.37V136.167ZM3555.97 202.58V485.224H3634.06C3717.15 485.224 3771.44 426.391 3771.44 345.116V343.902C3771.44 262.627 3717.15 202.58 3634.06 202.58H3555.97Z" fill="#FF384D"/>
<path d="M614.012 632L489.219 500.992C464.084 474.088 450.103 438.642 450.103 401.824C450.103 365.006 464.084 329.56 489.219 302.656L618.864 166.188C623.181 161.556 625.581 155.46 625.581 149.129C625.581 142.798 623.181 136.702 618.864 132.071C616.792 129.839 614.281 128.057 611.49 126.84C608.698 125.622 605.685 124.996 602.639 124.996C599.594 124.996 596.581 125.622 593.789 126.84C590.997 128.057 588.487 129.839 586.415 132.071L164.424 576.352C155.721 585.76 145.167 593.267 133.425 598.401C121.682 603.535 109.005 606.186 96.1894 606.186C83.3737 606.186 70.6964 603.535 58.954 598.401C47.2115 593.267 36.6576 585.76 27.9551 576.352C9.98623 557 0 531.568 0 505.16C0 478.752 9.98623 453.32 27.9551 433.968L178.071 276.121C189.694 263.854 196.061 247.529 195.811 230.631C196.045 213.737 189.68 197.417 178.071 185.142L53.1259 54.1336L104.832 0L229.625 131.008C255.066 157.791 269.142 193.389 268.898 230.328C269.119 267.217 255.043 302.759 229.625 329.495L80.4197 488.709C75.9923 493.308 73.5428 499.457 73.5962 505.841C73.588 512.143 75.9726 518.215 80.268 522.826C82.3653 525.042 84.8925 526.806 87.6952 528.012C90.4978 529.219 93.5172 529.841 96.5685 529.841C99.6198 529.841 102.639 529.219 105.442 528.012C108.244 526.806 110.772 525.042 112.869 522.826L534.708 78.696C543.338 69.2429 553.825 61.6726 565.513 56.4547C577.201 51.2368 589.84 48.4833 602.639 48.3696C615.348 48.3789 627.919 50.9953 639.577 56.0549C651.235 61.1145 661.732 68.5089 670.419 77.7853C688.454 97.1039 698.485 122.549 698.485 148.977C698.485 175.406 688.454 200.851 670.419 220.17L540.774 356.638C529.357 368.855 523.007 384.951 523.007 401.672C523.007 418.393 529.357 434.489 540.774 446.706L665.718 577.718L614.012 631.848V632Z" fill="#FF384D"/>
</g>
</svg>
