<svg width="256" height="40" viewBox="0 0 256 40" fill="none" xmlns="http://www.w3.org/2000/svg">
<path d="M56.2786 8.57422H67.9847C71.2546 8.57422 73.8787 9.54404 75.5627 11.1985C77.0156 12.7387 77.7975 14.7899 77.7372 16.9034V16.985C77.7372 21.3126 75.154 23.9043 71.508 24.9557L78.6037 34.9312H73.1266L66.6686 25.7462H60.8973V34.9312H56.2786V8.59869V8.57422ZM67.6496 21.6141C70.9195 21.6141 73.0531 19.8864 73.0531 17.2132V17.1398C73.0531 14.3118 71.0257 12.7714 67.6087 12.7714H60.8973V21.6141H67.6496Z" fill="white"/>
<path d="M80.8928 27.6854V15.0366H85.438V26.3325C85.438 29.4132 86.9748 31.1491 89.6725 31.1491C92.3701 31.1491 94.1358 29.3398 94.1358 26.2591V15.0366H98.7137V34.9063H94.1358V31.8256C93.5017 32.8975 92.5964 33.7845 91.5104 34.3981C90.4244 35.0117 89.1958 35.3304 87.9476 35.322C83.4842 35.322 80.8928 32.3064 80.8928 27.6854Z" fill="white"/>
<path d="M107.828 31.8252V34.9059H103.291V7.44043H107.828V18.3452C108.544 17.2045 109.539 16.2645 110.721 15.6143C111.902 14.964 113.231 14.6248 114.58 14.6287C119.24 14.6287 123.777 18.3126 123.777 24.9304V25.0118C123.777 31.5969 119.273 35.3216 114.58 35.3216C113.254 35.3338 111.945 35.0214 110.767 34.4119C109.59 33.8023 108.581 32.9141 107.828 31.8252ZM119.158 25.0118V24.9304C119.158 21.0999 116.575 18.5734 113.493 18.5734C110.411 18.5734 107.722 21.1325 107.722 24.9304V25.0118C107.722 28.8096 110.419 31.3688 113.493 31.3688C116.567 31.3688 119.158 28.9237 119.158 25.0118Z" fill="white"/>
<path d="M126.998 7.66895H131.902V11.9885H126.998V7.66895ZM127.186 15.0039H131.731V34.8736H127.186V15.0365V15.0039Z" fill="white"/>
<path d="M135.214 25.0614V24.9879C135.193 23.6263 135.445 22.2742 135.956 21.0111C136.466 19.7479 137.224 18.599 138.186 17.6319C139.148 16.6648 140.293 15.8989 141.556 15.3791C142.818 14.8593 144.172 14.5961 145.538 14.6049C147.03 14.548 148.516 14.8262 149.886 15.4187C151.255 16.0112 152.474 16.9029 153.451 18.0281L150.598 21.0761C149.209 19.6091 147.745 18.6311 145.497 18.6311C142.227 18.6311 139.775 21.4836 139.775 24.9473V25.0287C139.775 28.5658 142.227 31.3857 145.702 31.3857C146.684 31.3641 147.65 31.1349 148.536 30.7134C149.422 30.2919 150.209 29.6878 150.844 28.9407L153.582 31.6547C152.61 32.8567 151.372 33.8176 149.965 34.4625C148.558 35.1073 147.021 35.4182 145.473 35.371C144.119 35.3842 142.777 35.1272 141.524 34.6151C140.272 34.103 139.135 33.3461 138.18 32.3891C137.226 31.4322 136.473 30.2945 135.966 29.043C135.459 27.7915 135.209 26.4516 135.23 25.1021L135.214 25.0614Z" fill="white"/>
<path d="M154.841 25.0609V24.9875C154.906 22.2458 156.041 19.6377 158.006 17.7178C159.97 15.7979 162.608 14.7177 165.359 14.7071C168.109 14.6965 170.756 15.7564 172.735 17.6611C174.714 19.5657 175.87 22.165 175.956 24.9061V24.9875C175.955 26.3668 175.678 27.7323 175.141 29.0033C174.603 30.2744 173.816 31.4254 172.826 32.3889C171.836 33.3524 170.663 34.109 169.375 34.614C168.088 35.119 166.712 35.3625 165.329 35.3299C163.958 35.3615 162.595 35.1189 161.319 34.6166C160.044 34.1143 158.883 33.3624 157.903 32.4052C156.924 31.448 156.147 30.3049 155.619 29.0435C155.09 27.7822 154.82 26.428 154.825 25.0609H154.841ZM171.419 25.0609V24.9875C171.419 21.483 168.91 18.5899 165.345 18.5899C161.781 18.5899 159.378 21.4424 159.378 24.9061V24.9875C159.344 25.8033 159.474 26.6177 159.762 27.3823C160.049 28.1469 160.487 28.8464 161.051 29.4391C161.614 30.0318 162.291 30.5058 163.041 30.8331C163.791 31.1604 164.6 31.3343 165.419 31.3445C169.098 31.3445 171.419 28.4839 171.419 25.0609Z" fill="white"/>
<path d="M179.333 15.0366H183.878V18.0928C184.518 17.0291 185.426 16.1503 186.511 15.543C187.596 14.9356 188.821 14.6206 190.066 14.6291C194.529 14.6291 197.121 17.6365 197.121 22.233V34.9062H192.584V23.6185C192.584 20.5378 191.039 18.7693 188.341 18.7693C185.643 18.7693 183.878 20.6112 183.878 23.6593V34.8736H179.333V15.0366Z" fill="white"/>
<path d="M201.322 8.57422H206.235L214.23 21.0192L222.217 8.57422H227.13V34.9067H222.519V16.015L214.23 28.4353H214.075L205.859 16.0882V34.9067H201.322V8.57422Z" fill="white"/>
<path d="M232.084 8.57422H241.893C250.142 8.57422 255.848 14.2792 255.848 21.6631V21.7363C255.848 29.1528 250.125 34.9067 241.893 34.9067H232.084V8.57422ZM236.694 12.7795V30.7094H241.844C247.354 30.7094 250.959 26.985 250.959 21.826V21.7526C250.959 16.6019 247.354 12.7877 241.844 12.7877L236.694 12.7795Z" fill="white"/>
<path d="M41.6132 40L33.3322 31.6869C31.6796 30.0104 30.7537 27.7539 30.7537 25.4033C30.7537 23.0528 31.6796 20.7963 33.3322 19.1197L41.932 10.4891C42.218 10.202 42.3785 9.81367 42.3785 9.40905C42.3785 9.00443 42.218 8.61627 41.932 8.32922C41.7913 8.18753 41.6239 8.07509 41.4394 7.99833C41.2549 7.92156 41.0569 7.88193 40.857 7.88193C40.6571 7.88193 40.4591 7.92156 40.2746 7.99833C40.0901 8.07509 39.9227 8.18753 39.782 8.32922L11.8 36.471C11.2106 37.0614 10.51 37.53 9.73838 37.8497C8.9668 38.1694 8.13948 38.3338 7.30393 38.3338C6.46838 38.3338 5.64106 38.1694 4.86949 37.8497C4.09791 37.53 3.39728 37.0614 2.80784 36.471C1.61819 35.2692 0.951172 33.6486 0.951172 31.9601C0.951172 30.2715 1.61819 28.6508 2.80784 27.449L12.7565 17.4408C13.5054 16.6791 13.9249 15.655 13.9249 14.5883C13.9249 13.5217 13.5054 12.4976 12.7565 11.7358L4.47548 3.4311L7.89251 0L16.1735 8.30475C17.8383 9.97648 18.7726 12.2367 18.7726 14.5925C18.7726 16.9483 17.8383 19.2085 16.1735 20.8803L6.22487 30.8882C6.08095 31.028 5.96692 31.1954 5.88965 31.3803C5.81237 31.5652 5.77347 31.7638 5.77526 31.9641C5.77598 32.264 5.86544 32.5571 6.03244 32.8065C6.19944 33.056 6.43656 33.2507 6.71409 33.3664C6.99162 33.4822 7.29723 33.5138 7.59264 33.4572C7.88806 33.4005 8.16014 33.2582 8.37482 33.0481L36.3568 4.89813C36.9457 4.30673 37.6462 3.83735 38.4178 3.51705C39.1895 3.19675 40.0171 3.03176 40.8529 3.03176C41.6888 3.03176 42.5164 3.19675 43.288 3.51705C44.0597 3.83735 44.7601 4.30673 45.349 4.89813C46.5387 6.09998 47.2057 7.72051 47.2057 9.40905C47.2057 11.0976 46.5387 12.7183 45.349 13.9202L36.741 22.5508C35.9921 23.3126 35.5726 24.3367 35.5726 25.4033C35.5726 26.47 35.9921 27.4941 36.741 28.2558L45.0302 36.5607L41.605 39.9918L41.6132 40Z" fill="white"/>
</svg>
