<svg id="Layer_1" data-name="Layer 1" xmlns="http://www.w3.org/2000/svg" viewBox="0 0 687.13 160.36"><defs><style>.cls-1{fill:#8bc348;}.cls-2{font-size:110.82px;fill:#2899b7;font-family:NexaBold, Nexa Bold;}.cls-3{letter-spacing:-0.02em;}</style></defs><path class="cls-1" d="M59.57,276.35c.2-.37.46-.7.64-1.06C60,275.65,59.77,276,59.57,276.35Z" transform="translate(-56.43 -219.82)"/><path class="cls-1" d="M105.92,326a1.61,1.61,0,0,1-.4.53A1.61,1.61,0,0,0,105.92,326Z" transform="translate(-56.43 -219.82)"/><path class="cls-1" d="M93.43,358.11c0,.56,0,1.13-.06,1.7C93.41,359.24,93.43,358.67,93.43,358.11Z" transform="translate(-56.43 -219.82)"/><path class="cls-1" d="M60.26,275.17a1.15,1.15,0,0,0,.06-.17A1.15,1.15,0,0,1,60.26,275.17Z" transform="translate(-56.43 -219.82)"/><path class="cls-1" d="M106.38,324.65a7.82,7.82,0,0,1-.46,1.34,7.82,7.82,0,0,0,.46-1.34h0Z" transform="translate(-56.43 -219.82)"/><path class="cls-1" d="M93.19,361.5a27.37,27.37,0,0,1-.7,3.4A27.37,27.37,0,0,0,93.19,361.5Z" transform="translate(-56.43 -219.82)"/><path class="cls-1" d="M92.46,351.32c0-3.93,0-7.86.05-11.79,0,3.93,0,7.86-.05,11.79Z" transform="translate(-56.43 -219.82)"/><path class="cls-1" d="M95.23,327.22a3.52,3.52,0,0,1,.7-2.56h0A3.52,3.52,0,0,0,95.23,327.22Z" transform="translate(-56.43 -219.82)"/><path class="cls-1" d="M131,253.62a87.83,87.83,0,0,1,9.32.42c22.14,2.49,38.53,20.51,39.68,43.54,1,20.79-14.41,40.48-35.35,45-9.37,2-18.88.83-28.32,1.16-1.56.06-3.21-.45-4.7.52v30.93c30.67,11.43,75.6.24,95.84-39.71a79.68,79.68,0,0,0-33.95-106.31c-38.76-20.51-82.58-4.84-101.82,24.13a3,3,0,0,0,.63.25Q101.66,253.58,131,253.62Z" transform="translate(-56.43 -219.82)"/><path class="cls-1" d="M89.86,364.53c.66.48,1.51,2.19,2.63.37a73.34,73.34,0,0,1,0-13.58c0-3.93,0-7.86.05-11.79V325.06c1-1,2.22-.56,3.42-.4h25.19c4.91,0,9.82,0,14.73-.13A25.86,25.86,0,0,0,161,299.41c.42-13.12-9.85-26.9-26.95-26.75h-.79l-72,.14-.37.52-.18.26h0v0l-.3,1.08a1,1,0,0,1-.07.3,1.15,1.15,0,0,1-.06.17l0,.12c-.18.36-.44.69-.64,1.06a2.42,2.42,0,0,0-.24.62c-3,12.21-3.9,24.53-1.58,36.94C61.72,335,72.56,351.86,89.86,364.53ZM61.25,272.81l-.55.78Z" transform="translate(-56.43 -219.82)"/><text class="cls-2" transform="translate(180.58 126.22)"><tspan class="cls-3">P</tspan><tspan x="72.59" y="0">rime MD</tspan></text></svg>