<svg width="222" height="282" viewBox="0 0 222 282" fill="none" xmlns="http://www.w3.org/2000/svg">
<path d="M92.5642 97.8956H118.087C121.149 97.9739 124.194 97.4315 127.045 96.3006C129.896 95.1697 132.494 93.4731 134.686 91.3107C136.878 89.1482 138.621 86.5638 139.81 83.7097C141 80.8555 141.613 77.7894 141.613 74.6919C141.613 71.5944 141 68.5282 139.81 65.6741C138.621 62.8199 136.878 60.2355 134.686 58.0731C132.494 55.9107 129.896 54.214 127.045 53.0831C124.194 51.9522 121.149 51.4099 118.087 51.4881H92.5935V67.3375H118.117C119.144 67.2139 120.185 67.3119 121.172 67.625C122.16 67.9382 123.07 68.4594 123.843 69.1542C124.617 69.8491 125.236 70.7019 125.66 71.6564C126.084 72.6109 126.303 73.6454 126.303 74.6919C126.303 75.7383 126.084 76.7729 125.66 77.7274C125.236 78.6819 124.617 79.5347 123.843 80.2295C123.07 80.9244 122.16 81.4456 121.172 81.7587C120.185 82.0719 119.144 82.1699 118.117 82.0463H92.5642V97.8956Z" fill="#FF384D"/>
<path d="M49.4691 82.0611H23.946C20.8849 81.9829 17.8392 82.5252 14.9885 83.6561C12.1378 84.787 9.53975 86.4837 7.34735 88.6461C5.15495 90.8085 3.41258 93.3929 2.22293 96.2471C1.03328 99.1012 0.42041 102.167 0.42041 105.265C0.42041 108.362 1.03328 111.429 2.22293 114.283C3.41258 117.137 5.15495 119.721 7.34735 121.884C9.53975 124.046 12.1378 125.743 14.9885 126.874C17.8392 128.005 20.8849 128.547 23.946 128.469H49.4399V112.619H23.946C22.9187 112.743 21.8773 112.645 20.8902 112.332C19.9031 112.019 18.9929 111.497 18.2194 110.803C17.4459 110.108 16.8267 109.255 16.4028 108.3C15.9788 107.346 15.7596 106.311 15.7596 105.265C15.7596 104.218 15.9788 103.184 16.4028 102.229C16.8267 101.275 17.4459 100.422 18.2194 99.7272C18.9929 99.0323 19.9031 98.5112 20.8902 98.198C21.8773 97.8849 22.9187 97.7869 23.946 97.9105H49.4691V82.0611Z" fill="#FF384D"/>
<path d="M94.4091 51.4881C92.4673 51.4881 90.605 50.7078 89.232 49.3188C87.8589 47.9299 87.0875 46.0461 87.0875 44.0818V18.2637H71.4778V44.0818C71.4855 50.2328 73.9035 56.1299 78.2019 60.4807C82.5002 64.8315 88.3284 67.2812 94.4091 67.293V51.4881Z" fill="#FF384D"/>
<path d="M87.146 0H71.4778V20.93H87.146V0Z" fill="#FF384D"/>
<path d="M93.926 82.0613H25.2346V97.9106H93.926V82.0613Z" fill="#FF384D"/>
<path d="M186.5 143.177H145.075V159.027H186.5V143.177Z" fill="#FF384D"/>
<path d="M172.531 112.619H198.054C201.115 112.541 204.161 113.083 207.011 114.214C209.862 115.345 212.46 117.042 214.653 119.204C216.845 121.367 218.587 123.951 219.777 126.805C220.967 129.659 221.579 132.726 221.579 135.823C221.579 138.92 220.967 141.987 219.777 144.841C218.587 147.695 216.845 150.279 214.653 152.442C212.46 154.604 209.862 156.301 207.011 157.432C204.161 158.563 201.115 159.105 198.054 159.027H172.619V143.177H198.142C199.169 143.301 200.21 143.203 201.198 142.89C202.185 142.577 203.095 142.056 203.868 141.361C204.642 140.666 205.261 139.813 205.685 138.858C206.109 137.904 206.328 136.869 206.328 135.823C206.328 134.777 206.109 133.742 205.685 132.787C205.261 131.833 204.642 130.98 203.868 130.285C203.095 129.59 202.185 129.069 201.198 128.756C200.21 128.443 199.169 128.345 198.142 128.469H172.531V112.619Z" fill="#FF384D"/>
<path d="M145.075 159.027C143.133 159.027 141.271 159.807 139.898 161.196C138.525 162.585 137.753 164.469 137.753 166.433V192.251H122.144V166.374C122.147 160.222 124.564 154.322 128.863 149.971C133.163 145.619 138.993 143.17 145.075 143.163V159.027Z" fill="#FF384D"/>
<path d="M137.797 189.6H122.129V282H137.797V189.6Z" fill="#FF384D"/>
<path d="M173.893 112.619H105.201V128.469H173.893V112.619Z" fill="#FF384D"/>
<path d="M186.501 112.619H32.2195V128.469H186.501V112.619Z" fill="#FF384D"/>
<path d="M90.4865 214.079H91.5909C96.9478 213.932 102.032 211.656 105.744 207.743C109.455 203.829 111.495 198.594 111.423 193.169C111.35 187.745 109.171 182.567 105.356 178.757C101.541 174.947 96.3976 172.811 91.0387 172.811C85.6798 172.811 80.5364 174.947 76.7215 178.757C72.9066 182.567 70.727 187.745 70.6545 193.169C70.5819 198.594 72.6221 203.829 76.3337 207.743C80.0452 211.656 85.1296 213.932 90.4865 214.079ZM82.5794 193.24C82.7009 190.917 83.6968 188.728 85.3625 187.125C87.0282 185.522 89.2373 184.626 91.5356 184.621H92.0105C93.1881 184.683 94.342 184.98 95.4064 185.493C96.4707 186.007 97.4247 186.728 98.2138 187.615C99.0029 188.503 99.6117 189.538 100.005 190.664C100.399 191.789 100.57 192.982 100.508 194.174C100.447 195.366 100.154 196.534 99.6462 197.612C99.1386 198.689 98.4263 199.655 97.5501 200.454C96.6738 201.252 95.6507 201.869 94.5391 202.267C93.4276 202.666 92.2494 202.839 91.0718 202.777C88.6965 202.647 86.4689 201.569 84.8771 199.779C83.2853 197.989 82.4591 195.634 82.5794 193.229V193.24Z" fill="#4240A6"/>
</svg>
