<svg width="213" height="327" viewBox="0 0 213 327" fill="none" xmlns="http://www.w3.org/2000/svg">
<path d="M126.523 327H127.582C132.719 326.859 137.596 324.678 141.156 320.929C144.715 317.18 146.672 312.164 146.602 306.967C146.533 301.771 144.442 296.81 140.784 293.16C137.125 289.51 132.192 287.463 127.052 287.463C121.912 287.463 116.979 289.51 113.321 293.16C109.662 296.81 107.571 301.771 107.502 306.967C107.432 312.164 109.389 317.18 112.949 320.929C116.508 324.678 121.385 326.859 126.523 327ZM118.939 307.035C119.055 304.809 120.011 302.713 121.608 301.177C123.206 299.641 125.324 298.782 127.529 298.777H127.984C129.114 298.837 130.22 299.121 131.241 299.614C132.262 300.106 133.177 300.797 133.934 301.647C134.691 302.496 135.274 303.489 135.652 304.567C136.03 305.645 136.194 306.787 136.134 307.93C136.075 309.072 135.794 310.191 135.307 311.223C134.821 312.255 134.138 313.181 133.297 313.946C132.457 314.711 131.475 315.302 130.409 315.684C129.343 316.065 128.213 316.231 127.084 316.171C124.806 316.047 122.669 315.014 121.143 313.3C119.616 311.585 118.824 309.329 118.939 307.025V307.035Z" fill="#4240A6"/>
<path d="M89 93.5223H113.457C116.39 93.5965 119.127 92.8737 121.859 91.8018C124.59 90.7298 127.08 89.1217 129.181 87.0722C131.282 85.0226 132.951 82.573 134.091 79.8678C135.231 77.1626 135.818 74.2564 135.818 71.3206C135.818 68.3847 135.231 65.4786 134.091 62.7733C132.951 60.0681 131.282 57.6185 129.181 55.569C127.08 53.5194 124.59 51.9113 121.859 50.8394C119.127 49.7674 116.209 49.2534 113.275 49.3276H88.8464V64.3499L90 64.5L113.303 64.3499C114.5 64.3499 115.286 64.3257 116.232 64.6225C117.177 64.9193 118.05 65.4133 118.791 66.0719C119.532 66.7305 120.125 67.5388 120.532 68.4435C120.938 69.3482 121.148 70.3287 121.148 71.3206C121.148 72.3124 120.938 73.293 120.532 74.1977C120.125 75.1024 119.532 75.9106 118.791 76.5693C118.05 77.2279 117.177 77.7219 116.232 78.0187C115.286 78.3155 114.5 78.5 113.485 78.5H89V93.5223Z" fill="#99F2D3"/>
<path d="M28 78.6177H23.0075C20.0716 78.5427 17.1506 79.0623 14.4165 80.1458C11.6824 81.2292 9.19061 82.8547 7.0879 84.9264C4.98519 86.998 3.3141 89.474 2.17312 92.2084C1.03213 94.9428 0.444336 97.8802 0.444336 100.848C0.444336 103.815 1.03213 106.753 2.17312 109.487C3.3141 112.221 4.98519 114.697 7.0879 116.769C9.19061 118.841 11.6824 120.466 14.4165 121.55C17.1506 122.633 20.0716 123.153 23.0075 123.078H47.4584V107.893H23.0075C22 107.893 21.0234 107.918 20.0767 107.618C19.13 107.318 18.257 106.819 17.5152 106.153C16.7733 105.487 16.1795 104.67 15.7729 103.756C15.3662 102.841 15.156 101.85 15.156 100.848C15.156 99.8452 15.3662 98.8541 15.7729 97.9396C16.1795 97.0252 16.7733 96.2082 17.5152 95.5425C18.257 94.8767 19.13 94.3774 20.0767 94.0774C21.0234 93.7774 22.1875 93.8019 23.25 93.8019H28V78.6177Z" fill="#99F2D3"/>
<path d="M90.5947 49.3466C88.7318 49.3466 86.9451 48.5986 85.6278 47.2671C84.3105 45.9357 83.5705 44.1298 83.5705 42.2469L83.5977 17.4973H68.5947V42.2469C68.6022 48.1433 70.922 53.7963 75.0457 57.967C79.1695 62.1377 84.761 64.486 90.5947 64.4973V49.3466Z" fill="#99F2D3"/>
<path d="M83.5947 0H68.5947V20.0517H83.5947V0Z" fill="#99F2D3"/>
<path d="M90.1245 78.5L24.2432 78.6177V93.8019L90.1245 93.5V78.5Z" fill="#99F2D3"/>
<path d="M165.514 107.893H189.993C192.929 107.818 195.85 108.338 198.584 109.421C201.318 110.505 203.81 112.13 205.912 114.202C208.015 116.274 209.686 118.75 210.827 121.484C211.968 124.218 212.556 127.156 212.556 130.123C212.556 133.091 211.968 136.028 210.827 138.763C209.686 141.497 208.015 143.973 205.912 146.045C203.81 148.116 201.318 149.742 198.584 150.825C195.85 151.909 192.929 152.428 189.993 152.353H165.598V137.169H190.077C191.219 137.169 192.061 137.194 193.008 136.894C193.954 136.594 194.827 136.094 195.569 135.429C196.311 134.763 196.905 133.946 197.312 133.031C197.718 132.117 197.928 131.126 197.928 130.123C197.928 129.121 197.718 128.13 197.312 127.215C196.905 126.301 196.311 125.484 195.569 124.818C194.827 124.152 193.954 123.653 193.008 123.353C192.061 123.053 191.5 123.078 190.077 123.078H165.514V107.893Z" fill="#99F2D3"/>
<path d="M178.912 137.169H139.181V152.353H178.912V137.169Z" fill="#99F2D3"/>
<path d="M140.181 152.353C138.318 152.353 136.532 153.101 135.215 154.432C133.898 155.762 133.159 157.567 133.159 159.449V184.184H118.188V159.392C118.191 153.498 120.509 147.846 124.632 143.677C128.756 139.508 134.348 137.163 140.181 137.155V152.353Z" fill="#99F2D3"/>
<path d="M133.201 181.644H118.173V270.166H133.201V181.644Z" fill="#99F2D3"/>
<path d="M166.82 107.893H100.938V123.078H166.82V107.893Z" fill="#99F2D3"/>
<path d="M178.912 107.893H30.9424V123.078H178.912V107.893Z" fill="#99F2D3"/>
</svg>