<svg width="78" height="65" viewBox="0 0 78 65" fill="none" xmlns="http://www.w3.org/2000/svg">
<path d="M77.08 14.6162V0.889674C68.6742 0.881612 60.609 4.24879 54.6559 10.2516C48.7028 16.2545 45.3485 24.4021 45.33 32.9048V64.8896H77.08V32.9048H58.94C58.9506 28.0472 60.867 23.3924 64.2684 19.9632C67.6697 16.534 72.2777 14.6108 77.08 14.6162V14.6162ZM0 32.9048V64.8896H31.73V32.9048H13.64C13.6479 28.0551 15.5567 23.4065 18.9478 19.9781C22.3389 16.5498 26.9356 14.6216 31.73 14.6162V0.889674C27.5684 0.884357 23.4465 1.70824 19.5997 3.31427C15.7529 4.92031 12.2565 7.27703 9.31006 10.2499C6.36366 13.2228 4.02497 16.7536 2.42755 20.6407C0.830128 24.5279 0.00524956 28.6952 0 32.9048V32.9048Z" fill="#99F2D3"/>
</svg>
