<svg width="232" height="38" viewBox="0 0 232 38" fill="none" xmlns="http://www.w3.org/2000/svg">
<path d="M50.1565 8.18684H60.7688C62.0224 8.11927 63.2767 8.30579 64.4564 8.73507C65.6362 9.16435 66.717 9.82752 67.634 10.6849C68.9613 12.1601 69.6697 14.0895 69.6124 16.0731V16.1461C69.6906 17.8652 69.1712 19.5584 68.1424 20.9379C67.1136 22.3174 65.6389 23.298 63.9689 23.7133L70.3964 33.1768H65.4276L59.5745 24.461H54.3412V33.1768H50.1565V8.18684ZM60.4588 20.5771C63.4583 20.5771 65.3638 18.9268 65.3638 16.3923V16.3284C65.3638 13.648 63.5404 12.1801 60.4223 12.1801H54.3412V20.5771H60.4588Z" fill="#FF384D"/>
<path d="M72.5391 26.3211V14.3231H76.6509V25.0357C76.6509 27.9623 78.0458 29.5943 80.4983 29.5943C82.9508 29.5943 84.5463 27.8802 84.5463 24.9536V14.314H88.6946V33.1681H84.5463V30.2963C83.9907 31.2996 83.1771 32.1364 82.1898 32.7198C81.2024 33.3033 80.077 33.6122 78.9301 33.6148C74.8822 33.6148 72.5482 30.7521 72.5482 26.3211H72.5391Z" fill="#FF384D"/>
<path d="M96.9637 30.2963V33.2228H92.8428V7.15723H96.9637V17.5141C97.5852 16.4412 98.4772 15.5499 99.5506 14.9292C100.624 14.3085 101.841 13.9803 103.081 13.9768C107.302 13.9768 111.423 17.4777 111.423 23.7594V23.8322C111.423 30.0774 107.339 33.6148 103.081 33.6148C101.866 33.6152 100.67 33.3118 99.6011 32.7323C98.5327 32.1527 97.6261 31.3154 96.9637 30.2963ZM107.239 23.8322V23.7594C107.239 20.1126 104.886 17.7238 102.097 17.7238C99.3068 17.7238 96.8634 20.1581 96.8634 23.7594V23.8322C96.8634 27.4334 99.3068 29.8678 102.097 29.8678C104.886 29.8678 107.239 27.5428 107.239 23.8322Z" fill="#FF384D"/>
<path d="M114.341 7.33008H118.763V11.4328H114.341V7.33008ZM114.514 14.3228H118.626V33.1769H114.514V14.3228Z" fill="#FF384D"/>
<path d="M121.79 23.8595V23.7867C121.79 18.4349 125.737 13.931 131.144 13.931C132.511 13.8842 133.87 14.1534 135.117 14.7179C136.363 15.2824 137.462 16.1272 138.328 17.1859L135.739 20.076C135.198 19.3569 134.501 18.7706 133.7 18.3614C132.899 17.9522 132.016 17.731 131.116 17.7146C128.117 17.7146 125.91 20.4498 125.91 23.7137V23.7867C125.91 27.1418 128.117 29.8221 131.28 29.8221C132.181 29.7981 133.065 29.5775 133.872 29.1759C134.678 28.7743 135.387 28.2014 135.948 27.4972L138.428 30.0683C137.572 31.1988 136.459 32.1093 135.181 32.7244C133.903 33.3395 132.498 33.6415 131.08 33.6056C125.737 33.6056 121.79 29.2112 121.79 23.8595Z" fill="#FF384D"/>
<path d="M139.586 23.8596V23.7868C139.554 22.5062 139.779 21.232 140.246 20.0394C140.714 18.8467 141.415 17.7595 142.308 16.8415C143.202 15.9234 144.27 15.1931 145.449 14.6933C146.629 14.1935 147.896 13.9344 149.177 13.9312C150.452 13.9283 151.714 14.1811 152.89 14.6746C154.065 15.1681 155.13 15.8923 156.021 16.8043C156.912 17.7163 157.611 18.7976 158.076 19.9844C158.542 21.1712 158.765 22.4393 158.732 23.7138V23.7868C158.759 25.0675 158.529 26.3405 158.057 27.5314C157.585 28.7222 156.88 29.8066 155.983 30.7212C155.087 31.6359 154.016 32.3623 152.835 32.8576C151.653 33.3529 150.385 33.6072 149.104 33.6057C147.835 33.6061 146.578 33.3526 145.408 32.86C144.238 32.3675 143.179 31.6461 142.292 30.7379C141.405 29.8298 140.709 28.7533 140.244 27.5721C139.779 26.3908 139.556 25.1286 139.586 23.8596ZM154.62 23.8596V23.7868C154.62 20.4682 152.341 17.7147 149.104 17.7147C145.868 17.7147 143.698 20.4499 143.698 23.7138V23.7868C143.698 27.069 145.977 29.8222 149.168 29.8222C152.359 29.8222 154.638 27.087 154.638 23.8596H154.62Z" fill="#FF384D"/>
<path d="M161.795 14.3227H165.943V17.2128C166.507 16.2194 167.324 15.3928 168.31 14.8164C169.296 14.24 170.417 13.9345 171.56 13.9307C175.608 13.9307 177.942 16.7843 177.942 21.1423V33.1768H173.821V22.4642C173.821 19.5376 172.426 17.9057 169.982 17.9057C167.539 17.9057 165.925 19.6563 165.925 22.5829V33.2224H161.813V14.3683L161.795 14.3227Z" fill="#FF384D"/>
<path d="M181.725 8.18701H186.184L193.432 20.0028L200.68 8.18701H205.138V33.177H200.944V15.2528L193.432 27.0321H193.295L185.846 15.3257V33.177H181.725V8.18701Z" fill="#FF384D"/>
<path d="M209.624 8.18701H218.504C225.989 8.18701 231.158 13.5754 231.158 20.6046V20.6774C231.158 27.7158 225.989 33.1769 218.504 33.1769H209.624V8.18701ZM213.808 12.1802V29.1746H218.504C223.5 29.1746 226.764 25.6372 226.764 20.7504V20.6774C226.764 15.7907 223.5 12.1802 218.504 12.1802H213.808Z" fill="#FF384D"/>
<path d="M36.9184 38L29.4151 30.1229C27.9038 28.5053 27.0632 26.3741 27.0632 24.1603C27.0632 21.9465 27.9038 19.8153 29.4151 18.1977L37.2102 9.9923C37.4697 9.71383 37.614 9.34731 37.614 8.96663C37.614 8.58595 37.4697 8.21943 37.2102 7.94096C37.0856 7.80675 36.9346 7.69965 36.7668 7.62644C36.5989 7.55323 36.4178 7.5156 36.2346 7.5156C36.0515 7.5156 35.8704 7.55323 35.7025 7.62644C35.5346 7.69965 35.3837 7.80675 35.2591 7.94096L9.88623 34.6541C9.36298 35.2198 8.72841 35.6711 8.02237 35.9798C7.31634 36.2885 6.5541 36.4479 5.78354 36.4479C5.01298 36.4479 4.25073 36.2885 3.5447 35.9798C2.83867 35.6711 2.2041 35.2198 1.68085 34.6541C0.600438 33.4905 0 31.9614 0 30.3736C0 28.7857 0.600438 27.2566 1.68085 26.093L10.7068 16.6022C11.4057 15.8646 11.7885 14.883 11.7735 13.8671C11.7875 12.8513 11.4048 11.87 10.7068 11.1319L3.19428 3.25487L6.30321 0L13.8066 7.87707C15.3363 9.48742 16.1826 11.6278 16.1679 13.8488C16.1812 16.0669 15.3349 18.2039 13.8066 19.8114L4.83536 29.3844C4.56916 29.6609 4.42188 30.0307 4.42509 30.4145C4.42459 30.7934 4.56797 31.1585 4.82624 31.4357C4.95234 31.569 5.1043 31.675 5.27281 31.7476C5.44133 31.8201 5.62287 31.8575 5.80633 31.8575C5.9898 31.8575 6.17133 31.8201 6.33985 31.7476C6.50837 31.675 6.66032 31.569 6.78642 31.4357L32.1502 4.73172C32.6691 4.16334 33.2996 3.70816 34.0024 3.39443C34.7051 3.08069 35.4651 2.91514 36.2346 2.9083C36.9988 2.90886 37.7547 3.06617 38.4556 3.37039C39.1566 3.6746 39.7877 4.11921 40.31 4.67696C41.3944 5.83852 41.9975 7.36843 41.9975 8.9575C41.9975 10.5466 41.3944 12.0765 40.31 13.238L32.5149 21.4434C31.8284 22.178 31.4466 23.1458 31.4466 24.1512C31.4466 25.1565 31.8284 26.1244 32.5149 26.8589L40.0274 34.7362L36.9184 37.9909V38Z" fill="#FF384D"/>
</svg>
