<svg width="319" height="117" fill="none" xmlns="http://www.w3.org/2000/svg"><path d="m72.39 40.01.47-5.8c.09-11.18 9.5-20.2 21-20.13a20.93 20.93 0 0 1 14.68 6 19.839 19.839 0 0 1 6 14.37l-1.2 61a6.953 6.953 0 0 0 6.897 6.741 6.952 6.952 0 0 0 6.993-6.641l.48-21.39c.09-13 11.06-23.58 24.46-23.49l19.08.38-.11 13.51-19.07-.37a10.3 10.3 0 0 0-10.49 10.06l-.47 21.38c-.09 11.19-9.49 20.21-21 20.14a21 21 0 0 1-14.68-6.05 20.008 20.008 0 0 1-6-14.37l1.2-61a6.655 6.655 0 0 0-2-4.78 7 7 0 0 0-4.89-2 6.87 6.87 0 0 0-7 6.71l-.48 5.8c-.09 13.05-11.07 23.58-24.46 23.49L0 63.2l.09-13.52 61.8.37a10.31 10.31 0 0 0 10.49-10.07" fill="#4240A6"/><path d="M59.34 116.16c11.78 0 21.36-9.33 21.36-20.79 0-11.46-9.58-20.79-21.36-20.79s-21.35 9.33-21.35 20.79c0 11.46 9.58 20.79 21.35 20.79Zm0-28.8a8 8 0 1 1-8.22 8 8.13 8.13 0 0 1 8.22-8Z" fill="#99F2D3"/><path d="m246.3 75.83-.48 5.8c-.09 11.19-9.49 20.21-21 20.14a20.999 20.999 0 0 1-14.68-6 19.899 19.899 0 0 1-6-14.38l1.19-61a6.948 6.948 0 0 0-6.902-6.735 6.95 6.95 0 0 0-6.988 6.645l-.48 21.39c-.08 13-11.06 23.57-24.45 23.48l-19.08-.37.1-13.52 19.08.38a10.292 10.292 0 0 0 10.48-10.07l.48-21.38c.08-11.18 9.48-20.21 21-20.13a20.999 20.999 0 0 1 14.67 6 19.994 19.994 0 0 1 6 14.37l-1.2 61a6.668 6.668 0 0 0 2 4.78 7.001 7.001 0 0 0 4.9 2 6.861 6.861 0 0 0 7-6.71l.48-5.8c.09-13 11.06-23.57 24.47-23.48l61.8.37-.09 13.51-61.82-.37a10.298 10.298 0 0 0-10.47 10.07" fill="#4240A6"/></svg>