<svg width="84" height="84" viewBox="0 0 84 84" fill="none" xmlns="http://www.w3.org/2000/svg">
<path d="M13.6239 10.8997C13.0739 11.3897 12.5338 11.8997 12.0138 12.4297C7.27162 17.2349 3.76769 23.1202 1.80333 29.5793C-0.161028 36.0383 -0.526961 42.8779 0.736927 49.5097C2.00082 56.1415 4.85675 62.367 9.05907 67.6508C13.2614 72.9346 18.6843 77.1185 24.8614 79.8427C31.0386 82.5669 37.7849 83.7499 44.5204 83.2898C51.2558 82.8297 57.7788 80.7404 63.5281 77.2016C69.2774 73.6627 74.0811 68.7802 77.5259 62.974C80.9707 57.1679 82.9535 50.6118 83.3038 43.8698C83.6316 38.3963 82.8684 32.9122 81.0588 27.7361C79.2492 22.5601 76.4292 17.7953 72.7626 13.7183C69.0959 9.64131 64.6557 6.33342 59.6998 3.98697C54.744 1.64052 49.3712 0.302214 43.8938 0.0497109C38.3829 -0.218652 32.8731 0.60148 27.6793 2.46316C22.4855 4.32485 17.7094 7.19157 13.6239 10.8997ZM55.4238 29.3297C57.0641 31.1432 58.3249 33.2666 59.1321 35.5747C59.9392 37.8829 60.2765 40.3292 60.1239 42.7697C59.8732 47.381 57.9204 51.7354 54.6438 54.9898L53.9138 55.6897C51.6325 57.7091 48.8895 59.1362 45.9265 59.8451C42.9635 60.5541 39.8716 60.5232 36.9233 59.755C33.9751 58.9869 31.2611 57.5052 29.0207 55.4406C26.7804 53.3759 25.0824 50.7917 24.0765 47.9159C23.0707 45.0401 22.7877 41.961 23.2528 38.9501C23.7179 35.9392 24.9168 33.0889 26.7435 30.6507C28.5703 28.2124 30.9688 26.2609 33.7278 24.9685C36.4867 23.6761 39.5212 23.0825 42.5638 23.2398C45.0048 23.3481 47.3995 23.9426 49.6078 24.9883C51.816 26.0341 53.7933 27.51 55.4238 29.3297Z" fill="#EDECF7"/>
</svg>
