<svg version="1.2" xmlns="http://www.w3.org/2000/svg" viewBox="0 0 624 616" width="624" height="616">
	<title>trust-stats-bg-right-svg</title>
	<style>
		.s0 { opacity: .1;fill: #4947ad } 
	</style>
	<path id="Layer" class="s0" d="m0 50.6c0.1-6.7 1.6-13.4 4.2-19.6 2.7-6.2 6.6-11.8 11.4-16.5 9.8-9.5 22.9-14.7 36.5-14.5 13.6 0.2 26.6 5.9 36 15.7l323.8 330.5q0.8 0.8 1.3 1.8l26.7 27.6c3.2 3.2 7.5 5.1 12 5.2 4.6 0.1 8.9-1.7 12.2-4.8 3.3-3.2 5.1-7.5 5.2-12.1 0.1-4.6-1.7-9-4.8-12.2l-167.7-173.9c-4.7-4.9-8.4-10.6-10.8-16.9-2.5-6.3-3.7-13-3.6-19.8 0.1-6.8 1.5-13.4 4.2-19.6 2.7-6.2 6.6-11.9 11.4-16.6 9.8-9.4 22.9-14.6 36.5-14.4 13.6 0.2 26.5 5.8 36 15.6l114.3 118.6q1.2 1.1 2.4 2.3l40.9 42.5c3.1 3.3 7.5 5.1 12 5.2 4.5 0.1 8.9-1.6 12.1-4.8 3.3-3.2 5.2-7.5 5.2-12.1 0.1-4.5-1.6-8.9-4.8-12.2l-140-145.5c-4.7-4.8-8.4-10.6-10.9-16.8-2.4-6.3-3.6-13.1-3.5-19.8 0.1-6.8 1.5-13.5 4.2-19.7 2.7-6.2 6.5-11.8 11.4-16.5 9.8-9.5 22.9-14.7 36.5-14.5 13.6 0.2 26.5 5.9 36 15.7l39.7 41.2c4.7 4.9 11.2 7.7 18 7.9 6.8 0.1 13.4-2.5 18.3-7.3l29.9-32.7 23.8 24.7-30 32.7c-11.4 11.1-26.7 17.2-42.5 16.9-15.9-0.2-31-6.8-42-18.3l-39.8-41.2c-3.1-3.3-7.4-5.1-12-5.2-4.5-0.1-8.9 1.7-12.1 4.8-1.6 1.6-2.9 3.5-3.8 5.5-0.9 2.1-1.4 4.3-1.4 6.6-0.1 2.2 0.3 4.5 1.2 6.6 0.8 2.1 2 4 3.6 5.6l140 145.4c4.7 4.9 8.3 10.6 10.8 16.9 2.5 6.3 3.7 13 3.6 19.8-0.1 6.8-1.6 13.4-4.2 19.6-2.7 6.3-6.6 11.9-11.4 16.6-9.8 9.5-22.9 14.7-36.5 14.4-13.6-0.2-26.5-5.8-36-15.6l-36.5-38q-1.3-1.1-2.7-2.5l-118.4-122.9c-3.1-3.3-7.4-5.1-12-5.2-4.5-0.1-8.9 1.7-12.1 4.8-1.6 1.6-2.9 3.5-3.8 5.5-0.9 2.1-1.4 4.3-1.4 6.6-0.1 2.2 0.3 4.5 1.2 6.6 0.8 2.1 2 4 3.6 5.6l167.6 173.8c9.1 9.9 14 23 13.7 36.5-0.4 13.4-6 26.2-15.6 35.6-9.6 9.4-22.5 14.6-35.9 14.5-13.4 0-26.3-5.4-35.8-14.8l-41-42.4q-0.5-0.5-0.9-1.1l-309.9-316.3c-3.2-3.3-7.5-5.2-12.1-5.3-4.5 0-8.9 1.7-12.1 4.9-1.6 1.5-2.9 3.4-3.8 5.5-0.9 2-1.4 4.3-1.4 6.5-0.1 2.3 0.3 4.5 1.2 6.6 0.8 2.1 2 4 3.6 5.6l454.9 473.1c9.4 9.8 14.6 23 14.4 36.7-0.2 13.7-5.8 26.7-15.6 36.2-9.8 9.5-22.9 14.7-36.5 14.5-13.6-0.2-26.5-5.9-36-15.7l-148.5-155c-4.7-4.9-11.2-7.7-18-7.8-6.8-0.1-13.3 2.5-18.2 7.3l-54.1 52.6-23.8-24.6 54.1-52.6c11.4-11.1 26.7-17.2 42.6-16.9 15.8 0.2 30.9 6.8 42 18.2l148.4 154.9c1.6 1.6 3.5 2.9 5.5 3.8 2.1 0.9 4.3 1.4 6.6 1.4 2.2 0.1 4.4-0.3 6.5-1.2 2.1-0.8 4-2 5.6-3.6 1.6-1.6 2.9-3.5 3.8-5.5 0.9-2.1 1.4-4.3 1.4-6.6 0.1-2.2-0.3-4.5-1.1-6.6-0.9-2.1-2.1-4-3.7-5.6l-454.9-473.1c-4.7-4.9-8.4-10.6-10.8-16.9-2.5-6.3-3.7-13.1-3.6-19.8z"/>
	<path id="Layer" fill-rule="evenodd" class="s0" d="m205.1 570.4c-9.1 8.4-21.2 12.8-33.7 12.3-12.4-0.4-24.1-5.7-32.7-14.7-8.5-9.1-13.1-21-12.8-33.4 0.3-12.4 5.5-24.1 14.4-32.7 9-8.6 20.9-13.4 33.4-13.2 12.4 0.1 24.3 5.1 33.1 13.9 8.7 8.7 13.7 20.6 13.7 33 0 0.8-0.1 1.6-0.1 2.5-0.6 12.3-6.1 24-15.3 32.3zm-33.2-13.7c4.2 0.2 8.3-0.9 11.9-3 3.6-2.1 6.5-5.3 8.3-9.1 1.8-3.7 2.4-7.9 1.8-12-0.6-4.2-2.4-8-5.3-11.1-2.8-3.1-6.4-5.3-10.5-6.3-4-1-8.3-0.8-12.2 0.6-4 1.4-7.4 3.9-9.9 7.2-2.5 3.4-4 7.4-4.2 11.5q0 0.6 0 1.2c0 5.3 2.1 10.5 5.8 14.4 3.8 3.9 8.9 6.3 14.3 6.5z"/>
	<path id="Layer" fill-rule="evenodd" class="s0" d="m136.8 343.9c0.7-12.5 6.3-24.3 15.7-32.6 9.4-8.4 21.7-12.8 34.3-12.1 12.1 0.6 23.5 5.9 31.9 14.6 8.4 8.8 13 20.4 13.1 32.5 0 0.9-0.1 1.7-0.1 2.5-0.3 6.2-1.9 12.3-4.6 17.9-2.7 5.6-6.4 10.6-11.1 14.8-4.6 4.1-10 7.3-15.9 9.4-5.9 2.1-12.1 3-18.4 2.7-12.5-0.7-24.3-6.3-32.8-15.6-8.4-9.3-12.8-21.6-12.1-34.1zm48.5-18.6c-5.6-0.2-11.1 1.7-15.3 5.4-4.2 3.8-6.7 9-7 14.6q0 0.5 0 1.1c0 4.1 1.2 8.1 3.5 11.6 2.3 3.4 5.5 6.1 9.3 7.7 3.8 1.6 8 2.1 12.1 1.4 4.1-0.7 7.9-2.6 10.9-5.5 3-2.8 5.1-6.5 6-10.5 0.9-4 0.7-8.2-0.8-12-1.4-3.9-3.9-7.2-7.3-9.7-3.3-2.4-7.3-3.8-11.4-4.1z"/>
</svg>