<svg version="1.2" xmlns="http://www.w3.org/2000/svg" viewBox="0 0 616 624" width="616" height="624">
	<title>trust-stats-bg-right-svg</title>
	<style>
		.s0 { opacity: .1;fill: #4947ad } 
	</style>
	<path id="Layer" class="s0" d="m565.4 0c6.7 0.1 13.4 1.6 19.6 4.2 6.2 2.7 11.8 6.6 16.5 11.4 9.5 9.8 14.7 22.9 14.5 36.5-0.2 13.6-5.9 26.6-15.7 36l-330.5 323.8q-0.8 0.8-1.8 1.3l-27.6 26.7c-3.2 3.2-5.1 7.5-5.2 12-0.1 4.6 1.7 8.9 4.8 12.2 3.2 3.3 7.5 5.1 12.1 5.2 4.6 0.1 9-1.7 12.2-4.8l173.9-167.7c4.9-4.7 10.6-8.4 16.9-10.8 6.3-2.5 13-3.7 19.8-3.6 6.8 0.1 13.4 1.5 19.6 4.2 6.2 2.7 11.9 6.6 16.6 11.4 9.4 9.8 14.6 22.9 14.4 36.5-0.2 13.6-5.8 26.5-15.6 36l-118.6 114.3q-1.1 1.2-2.3 2.4l-42.5 40.9c-3.3 3.1-5.1 7.5-5.2 12-0.1 4.5 1.6 8.9 4.8 12.1 3.2 3.3 7.5 5.2 12.1 5.2 4.5 0.1 8.9-1.6 12.2-4.8l145.5-140c4.8-4.7 10.6-8.4 16.8-10.9 6.3-2.4 13.1-3.6 19.8-3.5 6.8 0.1 13.5 1.5 19.7 4.2 6.2 2.7 11.8 6.5 16.5 11.4 9.5 9.8 14.7 22.9 14.5 36.5-0.2 13.6-5.9 26.5-15.7 36l-41.2 39.7c-4.9 4.7-7.7 11.2-7.9 18-0.1 6.8 2.5 13.4 7.3 18.3l32.7 29.9-24.7 23.8-32.7-30c-11.1-11.4-17.2-26.7-16.9-42.5 0.2-15.9 6.8-31 18.3-42l41.2-39.8c3.3-3.1 5.1-7.4 5.2-12 0.1-4.5-1.7-8.9-4.8-12.1-1.6-1.6-3.5-2.9-5.5-3.8-2.1-0.9-4.3-1.4-6.6-1.4-2.2-0.1-4.5 0.3-6.6 1.2-2.1 0.8-4 2-5.6 3.6l-145.4 140c-4.9 4.7-10.6 8.3-16.9 10.8-6.3 2.5-13 3.7-19.8 3.6-6.8-0.1-13.4-1.6-19.6-4.2-6.3-2.7-11.9-6.6-16.6-11.4-9.5-9.8-14.7-22.9-14.4-36.5 0.2-13.6 5.8-26.5 15.6-36l38-36.5q1.1-1.3 2.5-2.7l122.9-118.4c3.3-3.1 5.1-7.4 5.2-12 0.1-4.5-1.7-8.9-4.8-12.1-1.6-1.6-3.5-2.9-5.5-3.8-2.1-0.9-4.3-1.4-6.6-1.4-2.2-0.1-4.5 0.3-6.6 1.2-2.1 0.8-4 2-5.6 3.6l-173.8 167.6c-9.9 9.1-23 14-36.5 13.7-13.4-0.4-26.2-6-35.6-15.6-9.4-9.6-14.6-22.5-14.5-35.9 0-13.4 5.4-26.3 14.8-35.8l42.4-41q0.5-0.5 1.1-0.9l316.3-309.9c3.3-3.2 5.2-7.5 5.3-12.1 0-4.5-1.7-8.9-4.9-12.1-1.5-1.6-3.4-2.9-5.5-3.8-2-0.9-4.3-1.4-6.5-1.4-2.3-0.1-4.5 0.3-6.6 1.2-2.1 0.8-4 2-5.6 3.6l-473.1 454.9c-9.8 9.4-23 14.6-36.7 14.4-13.7-0.2-26.7-5.8-36.2-15.6-9.5-9.8-14.7-22.9-14.5-36.5 0.2-13.6 5.9-26.5 15.7-36l155-148.5c4.9-4.7 7.7-11.2 7.8-18 0.1-6.8-2.5-13.3-7.3-18.2l-52.6-54.1 24.6-23.8 52.6 54.1c11.1 11.4 17.2 26.7 16.9 42.6-0.2 15.8-6.8 30.9-18.2 42l-154.9 148.4c-1.6 1.6-2.9 3.5-3.8 5.5-0.9 2.1-1.4 4.3-1.4 6.6-0.1 2.2 0.3 4.4 1.2 6.5 0.8 2.1 2 4 3.6 5.6 1.6 1.6 3.5 2.9 5.5 3.8 2.1 0.9 4.3 1.4 6.6 1.4 2.2 0.1 4.5-0.3 6.6-1.2 2.1-0.8 4-2 5.6-3.6l473.1-454.9c4.9-4.7 10.6-8.4 16.9-10.8 6.3-2.5 13.1-3.7 19.8-3.6z"/>
	<path id="Layer" fill-rule="evenodd" class="s0" d="m198.6 191.1c-8.4-9.1-12.8-21.2-12.3-33.7 0.4-12.4 5.7-24.1 14.7-32.7 9.1-8.5 21-13.1 33.4-12.8 12.4 0.3 24.1 5.5 32.7 14.4 8.6 9 13.4 20.9 13.2 33.4-0.1 12.4-5.1 24.3-13.9 33.1-8.7 8.7-20.6 13.7-33 13.7-0.8 0-1.6-0.1-2.5-0.1-12.3-0.6-24-6.1-32.3-15.3zm13.7-33.2c-0.2 4.2 0.9 8.3 3 11.9 2.1 3.6 5.3 6.5 9.1 8.3 3.7 1.8 7.9 2.4 12 1.8 4.2-0.6 8-2.4 11.1-5.3 3.1-2.8 5.3-6.4 6.3-10.5 1-4 0.8-8.3-0.6-12.3-1.4-3.9-3.9-7.3-7.2-9.8-3.4-2.5-7.4-4-11.5-4.2q-0.6 0-1.2 0c-5.3 0-10.5 2.1-14.4 5.8-3.9 3.8-6.3 8.9-6.5 14.3z"/>
	<path id="Layer" fill-rule="evenodd" class="s0" d="m223.6 532.8c-0.6 12.6-6.3 24.3-15.6 32.7-9.4 8.4-21.7 12.7-34.3 12.1-12.1-0.7-23.6-5.9-31.9-14.7-8.4-8.8-13.1-20.4-13.1-32.5 0-0.8 0.1-1.7 0.1-2.5 0.3-6.2 1.9-12.3 4.5-17.9 2.7-5.6 6.5-10.6 11.1-14.8 4.7-4.1 10.1-7.3 16-9.4 5.9-2.1 12.1-2.9 18.3-2.6 12.6 0.6 24.4 6.2 32.8 15.6 8.5 9.3 12.8 21.5 12.2 34zm-48.5 18.6c5.6 0.3 11.1-1.6 15.3-5.4 4.1-3.7 6.6-8.9 6.9-14.5q0-0.6 0-1.2c0-4.1-1.2-8.1-3.5-11.5-2.2-3.5-5.5-6.1-9.3-7.8-3.8-1.6-8-2.1-12-1.3-4.1 0.7-7.9 2.6-10.9 5.4-3 2.8-5.1 6.5-6 10.5-1 4-0.7 8.2 0.7 12.1 1.5 3.8 4 7.2 7.3 9.6 3.4 2.5 7.3 3.9 11.5 4.1z"/>
</svg>