<svg width="624" height="616" viewBox="0 0 624 616" fill="none" xmlns="http://www.w3.org/2000/svg">
<path d="M50.68 615.991C57.449 616.117 64.176 614.907 70.472 612.431C76.7679 609.955 82.5079 606.262 87.36 601.566L560.474 146.666C562.097 145.104 564.013 143.875 566.113 143.05C568.214 142.225 570.457 141.819 572.715 141.856C574.973 141.894 577.201 142.373 579.273 143.266C581.345 144.16 583.219 145.451 584.79 147.065C586.36 148.679 587.595 150.585 588.425 152.674C589.254 154.763 589.662 156.994 589.625 159.24C589.588 161.486 589.106 163.702 588.207 165.763C587.309 167.823 586.011 169.688 584.388 171.25L429.532 319.723C418.087 330.761 411.513 345.866 411.255 361.721C410.997 377.575 417.076 392.883 428.156 404.284L480.756 458.387L505.434 434.612L452.754 380.509C448.01 375.618 445.409 369.056 445.52 362.262C445.631 355.467 448.445 348.993 453.346 344.257L608.312 195.784C618.132 186.327 623.773 173.377 623.993 159.784C624.214 146.191 618.996 133.067 609.487 123.3C599.979 113.533 586.959 107.923 573.292 107.704C559.625 107.485 546.43 112.674 536.61 122.131L63.5461 577.012C61.9289 578.577 60.016 579.807 57.918 580.631C55.8199 581.456 53.5784 581.859 51.3228 581.817C49.0685 581.786 46.8429 581.31 44.7742 580.419C42.7056 579.527 40.8349 578.237 39.2703 576.623C36.1079 573.361 34.3736 568.986 34.447 564.455C34.5204 559.924 36.3955 555.607 39.662 552.448L356.032 242.465C356.427 242.192 356.8 241.888 357.147 241.556L399.451 200.599C408.916 191.065 414.251 178.224 414.316 164.826C414.38 151.429 409.169 138.538 399.797 128.914C390.425 119.29 377.638 113.697 364.172 113.333C350.706 112.969 337.632 117.863 327.749 126.966L153.9 294.61C152.283 296.174 150.37 297.404 148.272 298.229C146.174 299.053 143.932 299.457 141.677 299.415C139.422 299.387 137.195 298.914 135.126 298.022C133.056 297.131 131.186 295.838 129.624 294.22C126.463 290.96 124.729 286.586 124.802 282.057C124.875 277.528 126.75 273.213 130.016 270.055L252.922 151.65C253.846 150.771 254.66 149.902 255.403 149.043L293.389 112.491C303.193 103.024 308.823 90.0759 309.043 76.4863C309.264 62.8967 304.056 49.7747 294.564 39.9978C289.865 35.1618 284.252 31.2966 278.047 28.624C271.842 25.9514 265.167 24.5242 258.406 24.4243C251.638 24.3011 244.911 25.5104 238.615 27.9825C232.318 30.4547 226.575 34.1409 221.716 38.8291L76.2917 178.812C74.6745 180.376 72.7616 181.606 70.6635 182.431C68.5655 183.255 66.324 183.659 64.0684 183.617C61.8141 183.585 59.5885 183.11 57.5198 182.218C55.4512 181.327 53.5805 180.036 52.0159 178.422C48.8529 175.162 47.119 170.787 47.1943 166.257C47.2696 161.727 49.148 157.412 52.4176 154.257L93.6474 114.549C105.092 103.506 111.665 88.3989 111.922 72.5419C112.18 56.6849 106.103 41.3738 95.0234 29.9684L62.2806 0L37.5929 23.7749L70.3257 53.7434C75.0655 58.6371 77.6631 65.199 77.5502 71.993C77.4372 78.7871 74.6229 85.26 69.7231 89.9952L28.4932 129.703C18.6797 139.169 13.0425 152.12 12.8184 165.714C12.5944 179.309 17.8018 192.437 27.298 202.217C31.9912 207.062 37.6027 210.934 43.8087 213.611C50.0147 216.287 56.6922 217.715 63.4557 217.811C70.2258 217.939 76.9542 216.731 83.2519 214.257C89.5496 211.783 95.2916 208.091 100.146 203.396L245.59 63.3632C248.87 60.218 253.269 58.4931 257.824 58.5661C262.379 58.6391 266.72 60.5041 269.896 63.7529C273.058 67.0131 274.792 71.3865 274.719 75.9156C274.645 80.4447 272.77 84.7603 269.504 87.9174L227.039 128.804C226.186 129.623 225.422 130.433 224.719 131.222L106.122 245.511C96.3202 254.978 90.6925 267.924 90.4722 281.512C90.2519 295.099 95.4571 308.219 104.947 317.995C109.64 322.84 115.251 326.712 121.457 329.389C127.663 332.065 134.341 333.493 141.104 333.589C147.873 333.72 154.601 332.514 160.898 330.039C167.194 327.565 172.934 323.872 177.784 319.174L351.663 151.51C354.938 148.358 359.338 146.628 363.895 146.702C368.453 146.776 372.794 148.648 375.964 151.905C379.134 155.162 380.873 159.539 380.798 164.071C380.724 168.604 378.842 172.922 375.567 176.075L347.997 202.756C347.366 203.128 346.779 203.571 346.249 204.075L15.6573 527.874C5.85501 537.343 0.226992 550.29 0.00671669 563.879C-0.213559 577.468 4.9919 590.589 14.4821 600.368C19.1753 605.212 24.7869 609.085 30.9928 611.761C37.1988 614.438 43.8763 615.865 50.6399 615.961L50.68 615.991Z" fill="#4947AD" fill-opacity="0.05"/>
<path d="M403.559 77.908C403.559 78.7571 403.499 79.6063 403.499 80.4354C403.538 92.8044 408.473 104.661 417.236 113.438C425.998 122.215 437.883 127.208 450.319 127.335C462.755 127.462 474.741 122.713 483.682 114.117C492.624 105.521 497.803 93.7679 498.098 81.4023C498.393 69.0367 493.78 57.053 485.258 48.0447C476.736 39.0364 464.99 33.7282 452.562 33.2688C440.134 32.8095 428.024 37.2359 418.853 45.5903C409.682 53.9446 404.188 65.5548 403.559 77.908V77.908ZM452.121 59.3675C457.534 59.6389 462.636 61.9664 466.374 65.8699C470.111 69.7733 472.2 74.9549 472.209 80.3454C472.209 80.725 472.209 81.0947 472.209 81.4743C471.991 85.6316 470.539 89.6314 468.037 92.9685C465.535 96.3056 462.094 98.8301 458.15 100.223C454.205 101.616 449.935 101.815 445.877 100.795C441.819 99.7748 438.156 97.5812 435.351 94.4914C432.546 91.4017 430.724 87.5543 430.117 83.4355C429.509 79.3166 430.143 75.111 431.938 71.3502C433.732 67.5893 436.607 64.4419 440.2 62.3056C443.792 60.1693 447.941 59.1399 452.121 59.3476V59.3675Z" fill="#4947AD" fill-opacity="0.05"/>
<path d="M411.222 469.106C411.879 456.59 407.511 444.326 399.079 435.012C390.646 425.699 378.84 420.097 366.256 419.438C360.024 419.112 353.789 420.011 347.906 422.082C342.024 424.153 336.609 427.357 331.972 431.51C327.334 435.663 323.565 440.684 320.879 446.287C318.193 451.889 316.644 457.963 316.318 464.161C316.318 465.01 316.248 465.849 316.248 466.688C316.266 478.776 320.939 490.398 329.306 499.165C337.673 507.933 349.098 513.18 361.234 513.829C373.817 514.471 386.142 510.123 395.506 501.739C404.869 493.355 410.507 481.619 411.182 469.106H411.222ZM362.65 487.656C358.52 487.438 354.544 486.02 351.215 483.578C347.886 481.137 345.35 477.778 343.919 473.918C342.489 470.058 342.227 465.866 343.166 461.859C344.105 457.853 346.204 454.208 349.204 451.375C352.203 448.542 355.972 446.646 360.043 445.92C364.115 445.195 368.311 445.672 372.112 447.293C375.914 448.913 379.155 451.607 381.435 455.04C383.714 458.473 384.932 462.495 384.938 466.609C384.938 466.978 384.938 467.358 384.938 467.737C384.639 473.313 382.127 478.543 377.954 482.278C373.781 486.013 368.287 487.948 362.681 487.656H362.65Z" fill="#4947AD" fill-opacity="0.05"/>
</svg>
