<svg width="33" height="32" viewBox="0 0 33 32" fill="none" xmlns="http://www.w3.org/2000/svg">
<ellipse cx="16.9281" cy="16" rx="15.9935" ry="16" fill="white"/>
<path d="M8.9314 21.5769C10.5697 22.6277 12.4752 23.1855 14.4212 23.1839C21.0619 23.1839 24.8181 17.5694 24.5929 12.5329C25.2949 12.0259 25.9004 11.397 26.3804 10.6761C25.7264 10.9656 25.0333 11.1571 24.3235 11.2444C25.0712 10.7962 25.6301 10.0907 25.8955 9.26013C25.1932 9.67808 24.4247 9.97302 23.6232 10.1322C23.084 9.55672 22.37 9.17544 21.5921 9.04746C20.8141 8.91949 20.0156 9.052 19.3206 9.42448C18.6257 9.79696 18.073 10.3885 17.7485 11.1074C17.4241 11.8263 17.3459 12.6322 17.5261 13.4001C16.1026 13.3278 14.7101 12.9571 13.4388 12.3124C12.1675 11.6676 11.0456 10.763 10.1459 9.657C9.68853 10.4447 9.5484 11.3772 9.75401 12.2646C9.95963 13.1521 10.4955 13.9277 11.2527 14.4338C10.6847 14.416 10.129 14.2632 9.6317 13.988C9.62179 14.8223 9.90295 15.6339 10.4268 16.2831C10.9506 16.9323 11.6843 17.3785 12.5015 17.5449C11.9764 17.6901 11.4246 17.7102 10.8903 17.6036C11.1167 18.3159 11.5608 18.9392 12.1599 19.3857C12.7591 19.8322 13.4832 20.0794 14.2302 20.0925C12.7265 21.2616 10.8223 21.7898 8.9314 21.5622V21.5769Z" fill="#4240A6"/>
</svg>
