<svg width="369" height="400" viewBox="0 0 369 400" fill="none" xmlns="http://www.w3.org/2000/svg">
<path d="M230.292 382.553C241.164 379.398 250.341 372.061 255.811 362.15C261.281 352.24 262.598 340.564 259.472 329.684C256.356 318.804 249.052 309.604 239.163 304.102C229.273 298.6 217.605 297.244 206.718 300.332C195.843 303.481 186.662 310.816 181.189 320.726C175.716 330.637 174.398 342.314 177.526 353.195C180.65 364.072 187.956 373.269 197.846 378.771C207.735 384.273 219.402 385.633 230.292 382.553ZM213.761 324.934C215.926 324.316 218.192 324.131 220.429 324.389C222.666 324.648 224.831 325.344 226.799 326.439C228.767 327.534 230.499 329.006 231.898 330.771C233.296 332.536 234.334 334.559 234.95 336.725C236.206 341.092 235.678 345.779 233.482 349.757C231.286 353.736 227.601 356.68 223.237 357.944C218.864 359.184 214.177 358.64 210.204 356.429C206.232 354.219 203.299 350.523 202.047 346.153C200.791 341.786 201.319 337.099 203.515 333.121C205.711 329.143 209.396 326.198 213.761 324.934Z" fill="#F6F5FB"/>
<path d="M106.814 99.3953C117.686 96.2457 126.865 88.911 132.334 79.001C137.804 69.0911 139.118 57.4159 135.988 46.5381C132.874 35.6578 125.572 26.4563 115.684 20.9518C105.796 15.4473 94.1282 14.089 83.2399 17.1749C72.3694 20.3299 63.1928 27.6655 57.7209 37.5741C52.2491 47.4828 50.9283 59.1566 54.0479 70.0373C57.1624 80.9209 64.4673 90.1244 74.3597 95.6284C84.2522 101.132 95.9241 102.487 106.814 99.3953ZM90.283 41.7767C94.6564 40.5363 99.3432 41.0811 103.316 43.2915C107.288 45.502 110.221 49.1976 111.472 53.5679C112.732 57.935 112.206 62.6236 110.01 66.6027C107.813 70.5818 104.126 73.5255 99.7593 74.7866C95.3889 76.0338 90.7022 75.4943 86.7296 73.2867C82.7569 71.0791 79.8237 67.3841 78.5748 63.0143C77.3205 58.6455 77.8483 53.9578 80.0427 49.9774C82.2371 45.997 85.9193 43.0482 90.283 41.7767Z" fill="#F6F5FB"/>
<path d="M140.091 182.032L125.847 207.718L151.551 221.957L137.311 247.661L111.614 233.41L97.3743 259.114L71.6702 244.874L85.9147 219.189L60.2174 204.938L74.4688 179.24L100.154 193.485L114.406 167.787L140.091 182.032Z" fill="#F6F5FB"/>
</svg>
