<svg width="114" height="792" viewBox="0 0 114 792" fill="none" xmlns="http://www.w3.org/2000/svg">
<g clip-path="url(#clip0_15_8)">
<path d="M13.6835 719.37C13.1335 719.86 12.5934 720.37 12.0734 720.9C7.33119 725.705 3.82727 731.59 1.8629 738.049C-0.101457 744.509 -0.467391 751.348 0.796498 757.98C2.06039 764.612 4.91632 770.837 9.11864 776.121C13.321 781.405 18.7439 785.589 24.921 788.313C31.0981 791.037 37.8445 792.22 44.5799 791.76C51.3154 791.3 57.8383 789.211 63.5876 785.672C69.3369 782.133 74.1406 777.25 77.5854 771.444C81.0302 765.638 83.013 759.082 83.3634 752.34C83.6911 746.867 82.928 741.382 81.1184 736.206C79.3088 731.03 76.4888 726.265 72.8221 722.189C69.1555 718.112 64.7152 714.804 59.7594 712.457C54.8035 710.111 49.4308 708.772 43.9534 708.52C38.4425 708.252 32.9327 709.072 27.7389 710.933C22.545 712.795 17.769 715.662 13.6835 719.37ZM55.4834 737.8C57.1237 739.613 58.3845 741.737 59.1916 744.045C59.9988 746.353 60.3361 748.799 60.1835 751.24C59.9328 755.851 57.98 760.206 54.7034 763.46L53.9734 764.16C51.6921 766.179 48.9491 767.606 45.9861 768.315C43.0231 769.024 39.9311 768.993 36.9829 768.225C34.0347 767.457 31.3207 765.975 29.0803 763.911C26.8399 761.846 25.142 759.262 24.1361 756.386C23.1302 753.51 22.8473 750.431 23.3124 747.42C23.7775 744.409 24.9764 741.559 26.8031 739.121C28.6298 736.683 31.0284 734.731 33.7873 733.439C36.5463 732.146 39.5808 731.553 42.6234 731.71C45.0643 731.818 47.4591 732.413 49.6673 733.459C51.8756 734.504 53.8529 735.98 55.4834 737.8Z" fill="#F2F9FA"/>
<path d="M43.6239 10.8997C43.0739 11.3897 42.5338 11.8997 42.0138 12.4297C37.2716 17.2349 33.7677 23.1202 31.8033 29.5793C29.839 36.0383 29.473 42.8779 30.7369 49.5097C32.0008 56.1415 34.8568 62.367 39.0591 67.6508C43.2614 72.9346 48.6843 77.1185 54.8614 79.8427C61.0386 82.5669 67.7849 83.7499 74.5204 83.2898C81.2558 82.8297 87.7788 80.7404 93.5281 77.2016C99.2774 73.6627 104.081 68.7802 107.526 62.974C110.971 57.1679 112.953 50.6118 113.304 43.8698C113.632 38.3963 112.868 32.9122 111.059 27.7361C109.249 22.5601 106.429 17.7953 102.763 13.7183C99.0959 9.64131 94.6557 6.33342 89.6998 3.98697C84.744 1.64052 79.3712 0.302214 73.8938 0.0497109C68.3829 -0.218652 62.8731 0.60148 57.6793 2.46316C52.4855 4.32485 47.7094 7.19157 43.6239 10.8997ZM85.4238 29.3297C87.0641 31.1432 88.3249 33.2666 89.1321 35.5747C89.9392 37.8829 90.2765 40.3292 90.1239 42.7697C89.8732 47.381 87.9204 51.7354 84.6438 54.9898L83.9138 55.6897C81.6325 57.7091 78.8895 59.1362 75.9265 59.8451C72.9635 60.5541 69.8716 60.5232 66.9233 59.755C63.9751 58.9869 61.2611 57.5052 59.0207 55.4406C56.7804 53.3759 55.0824 50.7917 54.0765 47.9159C53.0707 45.0401 52.7877 41.961 53.2528 38.9501C53.7179 35.9392 54.9168 33.0889 56.7435 30.6507C58.5703 28.2124 60.9688 26.2609 63.7278 24.9685C66.4867 23.6761 69.5212 23.0825 72.5638 23.2398C75.0048 23.3481 77.3995 23.9426 79.6078 24.9883C81.816 26.0341 83.7933 27.51 85.4238 29.3297Z" fill="#F2F9FA"/>
</g>
<defs>
<clipPath id="clip0_15_8">
<rect width="114" height="792" fill="white"/>
</clipPath>
</defs>
</svg>
