<svg width="84" height="85" fill="none" xmlns="http://www.w3.org/2000/svg"><path opacity=".2" d="M69.758 73.76a42.11 42.11 0 0 0 13.93-29A41.41 41.41 0 0 0 44.268.93a42 42 0 0 0-30.26 10.85c-.56.51-1.11 1-1.63 1.55a41.92 41.92 0 0 0-12.3 27.45 41.26 41.26 0 0 0 10.54 30.16 41.89 41.89 0 0 0 59.14 2.81v.01Zm-41.8-18.43a18.35 18.35 0 0 1-4.7-13.44 18.86 18.86 0 0 1 19.69-17.73 18.448 18.448 0 0 1 17.56 19.52 18.7 18.7 0 0 1-5.48 12.23c-.24.24-.48.46-.73.69a18.66 18.66 0 0 1-26.34-1.25v-.02Z" fill="#99F2D3"/></svg>