<svg width="849" height="866" fill="none" xmlns="http://www.w3.org/2000/svg"><path opacity=".2" d="M545.175 115.888a44.674 44.674 0 0 0-30.711 16.027L142.59 576.805a14.998 14.998 0 0 1-21.245 1.81 15.352 15.352 0 0 1-1.847-21.469l121.78-145.252a53.658 53.658 0 0 0-6.399-75.03l-50.842-43.258-19.387 23.249 50.828 43.26a22.997 22.997 0 0 1 2.754 32.158L96.437 537.512a46 46 0 0 0 5.514 64.359 44.919 44.919 0 0 0 63.687-5.417L537.499 151.58a15.014 15.014 0 0 1 10.234-5.329 14.995 14.995 0 0 1 10.99 3.514 15.352 15.352 0 0 1 1.853 21.461L312.342 473.853a9.144 9.144 0 0 0-.896.908l-33.23 40a46.004 46.004 0 0 0 5.495 64.305 44.94 44.94 0 0 0 63.679-5.424l136.641-163.933a14.887 14.887 0 0 1 10.226-5.338 14.827 14.827 0 0 1 10.991 3.531 15.346 15.346 0 0 1 1.853 21.461l-96.603 115.743c-.708.868-1.378 1.689-1.932 2.527l-29.852 35.748a46 46 0 0 0 5.496 64.319 44.897 44.897 0 0 0 32.981 10.587 44.823 44.823 0 0 0 30.712-16.012l114.24-136.909a14.92 14.92 0 0 1 10.24-5.34 14.866 14.866 0 0 1 10.985 3.539 15.343 15.343 0 0 1 1.859 21.454l-32.411 38.822a53.68 53.68 0 0 0 6.415 75.043l31.263 23.626 19.401-23.25-31.263-23.627a23 23 0 0 1-2.728-32.175l32.405-38.815a46 46 0 0 0-5.503-64.311 44.672 44.672 0 0 0-32.975-10.609 44.694 44.694 0 0 0-30.711 16.027L424.867 622.674a15.02 15.02 0 0 1-4.603 3.712 14.991 14.991 0 0 1-16.709-1.931 15.344 15.344 0 0 1-5.323-10.351 15.346 15.346 0 0 1 3.47-11.11l33.373-39.986c.632-.775 1.264-1.55 1.834-2.376l93.228-111.746a46.002 46.002 0 0 0-5.466-64.229 44.64 44.64 0 0 0-33.013-10.627 44.667 44.667 0 0 0-30.713 16.077L324.324 554.03a14.997 14.997 0 0 1-21.239 1.802 15.332 15.332 0 0 1-1.859-21.453l21.658-26.081a9.085 9.085 0 0 0 1.407-1.33l259.362-316.16a45.999 45.999 0 0 0-5.495-64.304 44.736 44.736 0 0 0-32.99-10.608l.007-.008Z" fill="#99F2D3"/><path opacity=".2" d="M285.675 623.792a26.896 26.896 0 0 0-.171-2.243 42.002 42.002 0 0 0-13.485-26.882 41.38 41.38 0 0 0-30.035-10.894 41.391 41.391 0 0 0-28.845 13.741 42.38 42.38 0 0 0 2.938 59.432 41.387 41.387 0 0 0 58.881-2.847 42.003 42.003 0 0 0 10.717-30.307Zm-40.701 20.745a18.403 18.403 0 0 1-13.386-4.852 18.771 18.771 0 0 1-6.014-11.977l-.074-1.002a18.688 18.688 0 0 1 4.777-13.499 18.452 18.452 0 0 1 26.232-1.278 18.867 18.867 0 0 1 1.304 26.485 18.367 18.367 0 0 1-12.839 6.123ZM236.765 286.579a42.076 42.076 0 0 0 13.663 29.131 41.41 41.41 0 0 0 58.844-2.85 42.004 42.004 0 0 0 10.723-30.315 29.02 29.02 0 0 0-.171-2.243 42 42 0 0 0-13.49-26.874 41.247 41.247 0 0 0-30.028-10.902 41.878 41.878 0 0 0-39.557 44.04l.016.013Zm40.708-20.738a18.38 18.38 0 0 1 13.378 4.845 18.87 18.87 0 0 1 1.305 26.485 18.431 18.431 0 0 1-26.219 1.264 18.698 18.698 0 0 1-6.014-11.977 18.657 18.657 0 0 1 17.55-20.617ZM609.925 332.811a33.49 33.49 0 0 0-.169-2.228 42 42 0 0 0-43.502-37.828 41.878 41.878 0 0 0-39.557 44.04 42.099 42.099 0 0 0 13.663 29.132 41.242 41.242 0 0 0 30.04 10.886 41.178 41.178 0 0 0 28.832-13.739 42.001 42.001 0 0 0 10.725-30.302l-.032.039Zm-40.702 20.731a18.377 18.377 0 0 1-13.384-4.838 18.722 18.722 0 0 1-6.088-12.979 18.67 18.67 0 0 1 17.623-19.629 18.701 18.701 0 0 1 19.467 17.838 18.645 18.645 0 0 1-4.771 13.491 18.316 18.316 0 0 1-12.847 6.117Z" fill="#99F2D3"/></svg>