<svg width="33" height="32" viewBox="0 0 33 32" fill="none" xmlns="http://www.w3.org/2000/svg">
<ellipse cx="16.8956" cy="16" rx="15.9935" ry="16" fill="white"/>
<path d="M25.5372 11.8529C25.4388 11.4963 25.2509 11.1715 24.9918 10.9097C24.7327 10.6479 24.4112 10.4581 24.0583 10.3586C22.7338 10 17.403 10 17.403 10C17.403 10 12.0858 9.99285 10.7478 10.3586C10.3949 10.4581 10.0733 10.6479 9.81425 10.9097C9.55517 11.1715 9.36731 11.4963 9.26882 11.8529C9.01774 13.2231 8.89395 14.614 8.89908 16.0075C8.89492 17.3957 9.0187 18.7813 9.26882 20.1464C9.36731 20.5029 9.55517 20.8278 9.81425 21.0896C10.0733 21.3514 10.3949 21.5412 10.7478 21.6407C12.0709 22 17.403 22 17.403 22C17.403 22 22.7196 22 24.0583 21.6407C24.4112 21.5412 24.7327 21.3514 24.9918 21.0896C25.2509 20.8278 25.4388 20.5029 25.5372 20.1464C25.7821 18.7808 25.9007 17.3952 25.8914 16.0075C25.9017 14.6145 25.7831 13.2236 25.5372 11.8529ZM15.7017 18.5776V13.4296L20.1385 16.0075L15.7017 18.5776Z" fill="#519c4c"/>
</svg>
